<?xml version="1.0" encoding="utf-8"?>
<!-- Generator: Adobe Illustrator 24.0.1, SVG Export Plug-In . SVG Version: 6.00 Build 0)  -->
<svg version="1.1" id="Calque_1" xmlns="http://www.w3.org/2000/svg" xmlns:xlink="http://www.w3.org/1999/xlink" x="0px" y="0px"
	 viewBox="0 0 246.05 243.18" style="enable-background:new 0 0 246.05 243.18;" xml:space="preserve">
<style type="text/css">
	.st0{fill:#FFFFFF;}
	.st1{stroke:#FFFFFF;stroke-width:0.7045;stroke-miterlimit:10;}
	.st2{stroke:#FFFFFF;stroke-linecap:round;stroke-linejoin:round;stroke-miterlimit:10;}
	.st3{stroke:#FFFFFF;stroke-width:0.5;stroke-miterlimit:10;}
	.st4{clip-path:url(#SVGID_2_);}
	.st5{fill:#E6292A;}
	.st6{fill:#19180F;}
	.st7{fill:#00873C;}
	.st8{clip-path:url(#SVGID_4_);}
	.st9{fill:#009641;}
	.st10{fill:#E62E39;}
	.st11{clip-path:url(#SVGID_6_);}
	.st12{fill:#FCC000;}
	.st13{fill:#E4101E;}
	.st14{fill:#FEC700;}
	.st15{fill:#CA2119;}
	.st16{fill:#C1ACA0;}
	.st17{fill:#C7291C;}
	.st18{fill:#CBD0D3;}
	.st19{fill:#C81C18;}
	.st20{fill:#EDB50A;}
	.st21{fill:#B3B7BC;}
	.st22{fill:#7C91B3;}
	.st23{fill:#AF8F12;}
	.st24{fill:#EEB400;}
	.st25{fill:#B19934;}
	.st26{fill:#BF1918;}
	.st27{fill:#F6B900;}
	.st28{fill:#B1521C;}
	.st29{fill:#AD6516;}
	.st30{fill:#AC7514;}
	.st31{fill:#933D15;}
	.st32{fill:#AB7614;}
	.st33{fill:#D4BA00;}
	.st34{fill:#D06216;}
	.st35{fill:#D79C01;}
	.st36{fill:#AA5817;}
	.st37{fill:#A98316;}
	.st38{fill:#B21A18;}
	.st39{fill:#BDB6AC;}
	.st40{fill:#CFB400;}
	.st41{fill:#B09813;}
	.st42{fill:#B3911E;}
	.st43{fill:#AC9325;}
	.st44{fill:#987E17;}
	.st45{fill:#B29A34;}
	.st46{fill:#6F8CB5;}
	.st47{fill:#AA8913;}
	.st48{fill:#AF2717;}
	.st49{fill:#C32518;}
	.st50{fill:#A78D15;}
	.st51{fill:#B91D18;}
	.st52{fill:#905C17;}
	.st53{fill:#D6B400;}
	.st54{fill:#D7B700;}
	.st55{fill:#A5A5AC;}
	.st56{fill:#CE3817;}
	.st57{fill:#D99E00;}
	.st58{fill:#C19823;}
	.st59{fill:#A68D15;}
	.st60{fill:#F7B200;}
	.st61{fill:#6F4414;}
	.st62{fill:#B3B6BB;}
	.st63{fill:#D6BC00;}
	.st64{fill:#986E40;}
	.st65{fill:#AF9528;}
	.st66{fill:#C4A804;}
	.st67{fill:#A08E29;}
	.st68{fill:#FDC500;}
	.st69{fill:#A9ABAD;}
	.st70{fill:#AE8C12;}
	.st71{fill:#BFBBBB;}
	.st72{fill:#D18110;}
	.st73{fill:#A08B25;}
	.st74{fill:#A88914;}
	.st75{fill:#917E1B;}
	.st76{fill:#AAB0B8;}
	.st77{fill:#EFAE00;}
	.st78{fill:#CB1718;}
	.st79{fill:#967E19;}
	.st80{fill:#7A785D;}
	.st81{fill:#BE9F0B;}
	.st82{fill:#B2B6BB;}
	.st83{fill:#467CB8;}
	.st84{fill:#778FB3;}
	.st85{fill:#97989D;}
	.st86{fill:#8A6E17;}
	.st87{fill:#D17A12;}
	.st88{fill:#00519E;}
	.st89{fill:#B9271A;}
	.st90{fill:#CD4417;}
	.st91{fill:#D2870E;}
	.st92{fill:#D0B500;}
	.st93{fill:#BE1918;}
	.st94{fill:#CB2519;}
	.st95{fill:#D28010;}
	.st96{fill:#D39308;}
	.st97{fill:#D29905;}
	.st98{fill:#937E1A;}
	.st99{fill:#CE900A;}
	.st100{fill:#D29805;}
	.st101{fill:#D29904;}
	.st102{fill:#84928F;}
	.st103{fill:#C9AD79;}
	.st104{fill:#AF9767;}
	.st105{fill:#C3C9C7;}
	.st106{fill:#CECECE;}
	.st107{fill:#ADACAC;}
	.st108{fill:#C33A21;}
	.st109{fill:#CA1719;}
	.st110{fill:#A8501D;}
	.st111{fill:#C13218;}
	.st112{fill:#C62518;}
	.st113{fill:#9D8328;}
	.st114{fill:#C81F18;}
	.st115{fill:#C9CCD1;}
	.st116{fill:#A79216;}
	.st117{fill:#AE1A17;}
	.st118{fill:#AB2323;}
	.st119{fill:#C72018;}
	.st120{fill:#B3B2B2;}
	.st121{fill:#B4B4B9;}
	.st122{fill:#CBD0D6;}
	.st123{fill:#F6BC00;}
	.st124{fill:#B92B1E;}
	.st125{fill:#A97B14;}
	.st126{fill:#A28C17;}
	.st127{fill:#AF9E15;}
	.st128{fill:#D3B900;}
	.st129{fill:#CD161A;}
	.st130{fill:#CAC9C9;}
	.st131{fill:#A69618;}
	.st132{fill:#9D5A16;}
	.st133{fill:#CC191B;}
	.st134{fill:#AE4D18;}
	.st135{fill:#A77914;}
	.st136{fill:#CB171B;}
	.st137{fill:#A5871A;}
	.st138{fill:#8A8779;}
	.st139{fill:#007B58;}
	.st140{fill:#988419;}
	.st141{fill:#965915;}
	.st142{fill:#A99D8B;}
	.st143{fill:#CCD0D6;}
	.st144{fill:#007362;}
	.st145{fill:#394D50;}
	.st146{fill:#B2B1B0;}
	.st147{fill:#005BA7;}
	.st148{fill:#004F94;}
	.st149{fill:#C61818;}
	.st150{fill:#D0880E;}
	.st151{fill:#08549B;}
	.st152{fill:#D18F0A;}
	.st153{fill:#CB1C18;}
	.st154{fill:#D09706;}
	.st155{fill:#779938;}
	.st156{fill:#CF4117;}
	.st157{fill:#CF870E;}
	.st158{fill:#CC2B19;}
	.st159{fill:#009373;}
	.st160{fill:#AB351A;}
	.st161{fill:#325492;}
	.st162{fill:#CA1D19;}
	.st163{fill:#CC3718;}
	.st164{fill:#CB3F19;}
	.st165{fill:#CC2F18;}
	.st166{fill:#D28253;}
	.st167{fill:#B15939;}
	.st168{fill:#B42C18;}
	.st169{fill:#B08E13;}
	.st170{fill:#D7BF00;}
	.st171{fill:#9B4116;}
	.st172{fill:#C1B007;}
	.st173{fill:#957E18;}
	.st174{fill:#AA1A17;}
	.st175{fill:#7D6B1A;}
	.st176{fill:#9E8218;}
	.st177{fill:#7D731E;}
	.st178{fill:#931A15;}
	.st179{fill:#AE201E;}
	.st180{fill:#55606E;}
	.st181{fill:#996D16;}
	.st182{fill:#E46698;}
	.st183{fill:#C4C8C6;}
	.st184{fill:#E86EA1;}
	.st185{fill:#CF7D9C;}
	.st186{fill:#C89AAA;}
	.st187{fill:#ED6CA3;}
	.st188{fill:#CAC8C8;}
	.st189{fill:#E56399;}
	.st190{fill:#A5A19D;}
	.st191{fill:#ED6CA2;}
	.st192{fill:#CFB1BC;}
	.st193{fill:#ED6CA4;}
	.st194{fill:#AD6D80;}
	.st195{fill:#D0D6D6;}
	.st196{fill:#B24B73;}
	.st197{fill:#8F8C24;}
	.st198{fill:#C32819;}
	.st199{fill:#A67A1E;}
	.st200{fill:#AC9915;}
	.st201{fill:#005AA4;}
	.st202{fill:#284E91;}
	.st203{fill:#9A862C;}
	.st204{fill:#988537;}
	.st205{fill:#D2860E;}
	.st206{fill:#BF970B;}
	.st207{fill:#90822E;}
	.st208{fill:#934F16;}
	.st209{fill:#CD1618;}
	.st210{fill:#912314;}
	.st211{fill:#BB920D;}
	.st212{fill:#355690;}
	.st213{fill:#005AA7;}
	.st214{fill:#DA78A1;}
	.st215{fill:#D64F84;}
	.st216{fill:#A9931C;}
	.st217{clip-path:url(#SVGID_8_);}
	.st218{fill:#1C2A4C;}
	.st219{fill:#E51E2A;}
	.st220{clip-path:url(#SVGID_10_);fill:#E7373C;}
	.st221{clip-path:url(#SVGID_10_);fill:#FFFFFF;}
	.st222{clip-path:url(#SVGID_10_);fill:#20315C;}
</style>
<g>
	<defs>
		<circle id="SVGID_1_" cx="123.02" cy="121.59" r="119.97"/>
	</defs>
	<clipPath id="SVGID_2_">
		<use xlink:href="#SVGID_1_"  style="overflow:visible;"/>
	</clipPath>
	<g class="st4">
		<path class="st5" d="M242.99,201.58c-79.97,0-159.94,0-239.93,0c0-53.32,0-106.64,0-159.99c79.97,0,159.95,0,239.93,0
			C242.99,94.91,242.99,148.24,242.99,201.58z M148.4,164.32c0.05-0.03,0.11-0.06,0.16-0.09c-0.09-0.32-0.18-0.65-0.28-0.97
			c-3.1-10.53-6.2-21.05-9.3-31.58c-0.25-0.84-0.25-0.85,0.43-1.4c2.97-2.39,5.94-4.77,8.91-7.15c5.14-4.12,10.28-8.24,15.41-12.37
			c0.24-0.2,0.57-0.34,0.67-0.78c-0.41,0-0.75,0-1.09,0c-9.93,0-19.86,0.01-29.78,0.01c-0.94,0-0.94,0-1.21-0.89
			c-0.02-0.06-0.03-0.12-0.04-0.18c-3.01-10.19-6.02-20.39-9.04-30.58c-0.18-0.59-0.29-1.21-0.58-1.77
			c-0.33,0.24-0.32,0.62-0.41,0.94c-2.47,8.34-4.92,16.68-7.37,25.03c-0.66,2.24-1.32,4.49-1.98,6.73c-0.21,0.7-0.22,0.7-0.96,0.71
			c-0.22,0-0.44,0-0.66,0c-9.77,0.01-19.54,0.02-29.31,0.03c-0.36,0-0.73-0.05-1.14,0.09c0.22,0.4,0.55,0.58,0.83,0.8
			c7.92,6.34,15.84,12.68,23.76,19.02c1.1,0.88,1.1,0.88,0.71,2.2c-3.07,10.44-6.14,20.87-9.19,31.31
			c-0.08,0.26-0.28,0.54-0.14,0.87c0.41-0.15,0.66-0.44,0.95-0.67c7.99-6.4,15.98-12.8,23.97-19.2c1.12-0.9,0.77-0.82,1.82,0.02
			c7.93,6.33,15.85,12.67,23.78,19C147.67,163.74,148.03,164.03,148.4,164.32z"/>
		<path class="st6" d="M148.4,164.32c-0.36-0.29-0.73-0.57-1.09-0.86c-7.92-6.33-15.84-12.67-23.78-19
			c-1.05-0.84-0.7-0.91-1.82-0.02c-7.99,6.4-15.98,12.8-23.97,19.2c-0.29,0.23-0.54,0.52-0.95,0.67c-0.14-0.33,0.07-0.61,0.14-0.87
			c3.06-10.44,6.13-20.88,9.19-31.31c0.39-1.32,0.39-1.32-0.71-2.2c-7.92-6.34-15.84-12.68-23.76-19.02
			c-0.28-0.22-0.62-0.4-0.83-0.8c0.41-0.14,0.78-0.09,1.14-0.09c9.77-0.01,19.54-0.02,29.31-0.03c0.22,0,0.44,0,0.66,0
			c0.74-0.01,0.75-0.01,0.96-0.71c0.67-2.24,1.32-4.48,1.98-6.73c2.45-8.34,4.91-16.69,7.37-25.03c0.09-0.32,0.08-0.7,0.41-0.94
			c0.29,0.56,0.41,1.18,0.58,1.77c3.02,10.19,6.03,20.39,9.04,30.58c0.02,0.06,0.03,0.12,0.04,0.18c0.27,0.89,0.27,0.89,1.21,0.89
			c9.93,0,19.86-0.01,29.78-0.01c0.34,0,0.68,0,1.09,0c-0.1,0.44-0.43,0.59-0.67,0.78c-5.13,4.13-10.27,8.25-15.41,12.37
			c-2.97,2.38-5.94,4.77-8.91,7.15c-0.68,0.55-0.68,0.55-0.43,1.4c3.1,10.53,6.2,21.05,9.3,31.58c0.1,0.32,0.19,0.65,0.28,0.97
			C148.5,164.25,148.45,164.28,148.4,164.32z M147.02,162.3c0.05,0.06,0.12,0.14,0.19,0.07c0.04-0.04,0.01-0.15,0.01-0.22
			c-0.07-0.27-0.13-0.55-0.21-0.81c-3.62-12.26-7.23-24.52-10.85-36.78c-0.62-2.09-1.25-4.18-1.85-6.28
			c-0.13-0.46-0.34-0.67-0.84-0.64c-0.62,0.04-1.25,0.01-1.87,0.01c-1.09,0-2.17,0-3.39,0c0.95,3.25,1.87,6.38,2.79,9.51
			c0.93,3.17,1.87,6.34,2.8,9.51c0.91,3.11,1.87,6.21,2.65,9.37c-0.33-0.15-0.58-0.32-0.82-0.52c-2.35-1.86-4.69-3.73-7.03-5.59
			c-0.6-0.48-0.61-0.48-1.18-0.03c-1.27,1.01-2.54,2.02-3.8,3.04c-0.14,0.11-0.33,0.2-0.28,0.49c0.23,0.19,0.49,0.41,0.76,0.63
			c6.36,5.09,12.72,10.17,19.09,15.25C144.47,160.31,145.69,161.37,147.02,162.3z M121.92,134.56c-0.87-0.7-1.76-1.41-2.66-2.13
			c-0.9-0.72-1.8-1.45-2.7-2.17c-0.93-0.74-1.86-1.47-2.79-2.21c-0.9-0.72-1.8-1.44-2.7-2.17c-0.9-0.72-1.8-1.45-2.7-2.17
			c-0.9-0.72-1.8-1.44-2.7-2.17c-0.93-0.74-1.86-1.48-2.77-2.23c-0.87-0.71-1.79-1.36-2.65-2.18c0.45-0.23,0.8-0.15,1.14-0.16
			c2.78-0.02,5.56-0.03,8.33-0.05c0.88-0.01,0.88-0.01,1.14-0.87c0.42-1.4,0.83-2.81,1.24-4.22c0.1-0.35,0.26-0.69,0.23-1.07
			c-1.46-0.19-28.92-0.1-29.53,0.09c0.16,0.29,0.44,0.43,0.68,0.62c8.63,6.9,17.25,13.8,25.88,20.71c2.44,1.95,4.87,3.91,7.3,5.86
			c0.58,0.46,0.59,0.46,1.17,0c1.17-0.93,2.34-1.87,3.51-2.81C121.55,135.08,121.82,134.95,121.92,134.56z M130.76,128.75
			c-0.17,0.05-0.2,0.05-0.22,0.07c-0.05,0.03-0.11,0.06-0.16,0.1c-6.95,5.56-13.89,11.12-20.84,16.68
			c-0.15,0.12-0.29,0.23-0.44,0.35c-0.05,0.04-0.1,0.07-0.16,0.1c-0.03,0.01-0.06,0.01-0.09,0c-0.12-0.03,0.06-0.09-0.12-0.03
			c0.09-0.33,0.16-0.63,0.25-0.92c0.9-3.08,1.79-6.17,2.71-9.25c0.16-0.53,0.08-0.84-0.37-1.18c-1.22-0.93-2.39-1.9-3.59-2.86
			c-0.19-0.15-0.35-0.36-0.7-0.35c-1.51,5.13-3.02,10.27-4.53,15.41c-1.51,5.15-3.05,10.29-4.55,15.54c0.51-0.12,0.74-0.4,1-0.61
			c10.26-8.21,20.51-16.43,30.77-24.65c0.8-0.64,1.6-1.3,2.41-1.93c0.28-0.22,0.41-0.44,0.31-0.8
			C131.88,132.53,131.32,130.65,130.76,128.75z M162.46,110.91c-0.02-0.07-0.04-0.15-0.06-0.22c-0.36,0-0.73,0-1.09,0
			c-13.26,0-26.53,0-39.79,0.01c-0.34,0-0.69,0.03-1.03-0.01c-0.54-0.07-0.77,0.18-0.91,0.68c-0.37,1.35-0.78,2.7-1.17,4.04
			c-0.44,1.51-0.44,1.51,1.12,1.51c8.11,0,16.23,0,24.34,0c0.35,0,0.73-0.1,1.07,0.13c-0.14,0.35-0.44,0.49-0.68,0.68
			c-2.33,1.89-4.65,3.78-7,5.64c-0.44,0.35-0.54,0.66-0.37,1.19c0.51,1.61,0.95,3.23,1.43,4.84c0.06,0.19,0.06,0.43,0.36,0.57
			C146.6,123.63,154.53,117.27,162.46,110.91z M122.68,78.85c-0.33,0.44-0.38,0.86-0.5,1.24c-3.54,12-7.07,23.99-10.6,35.99
			c-0.68,2.3-1.35,4.61-2.03,6.91c-0.1,0.35-0.19,0.64,0.16,0.92c1.44,1.14,2.87,2.29,4.43,3.54c0.96-3.25,1.88-6.38,2.8-9.51
			c0.93-3.17,1.86-6.34,2.81-9.51c0.93-3.1,1.78-6.24,2.86-9.31c0.16,0.25,0.25,0.48,0.32,0.72c0.81,2.72,1.62,5.44,2.43,8.16
			c0.15,0.51,0.3,1.02,0.46,1.52c0.08,0.25,0.17,0.45,0.5,0.44c1.81-0.01,3.61,0,5.56,0C128.8,99.55,125.75,89.26,122.68,78.85z
			 M122.63,117.64c-1.44,0-2.87,0.01-4.31-0.01c-0.39,0-0.61,0.09-0.74,0.51c-0.89,3.08-1.8,6.16-2.72,9.23
			c-0.11,0.37-0.07,0.63,0.25,0.89c2.37,1.88,4.73,3.77,7.09,5.67c0.29,0.23,0.5,0.26,0.81,0.02c2.35-1.9,4.71-3.79,7.09-5.67
			c0.32-0.26,0.39-0.52,0.28-0.89c-0.92-3.07-1.84-6.15-2.73-9.23c-0.12-0.42-0.33-0.53-0.73-0.52
			C125.5,117.65,124.06,117.64,122.63,117.64z M102.18,117.68c-0.02,0.06-0.03,0.11-0.05,0.17c2.18,1.75,4.37,3.5,6.65,5.32
			c0.56-1.9,1.08-3.67,1.61-5.49C107.59,117.68,104.89,117.68,102.18,117.68z M112.46,135.57c-0.86,2.94-1.68,5.77-2.51,8.6
			c0.05,0.04,0.11,0.07,0.16,0.11c2.18-1.74,4.35-3.49,6.61-5.29C115.26,137.8,113.9,136.72,112.46,135.57z M135.16,144.26
			c0.05-0.04,0.1-0.07,0.16-0.11c-0.83-2.83-1.67-5.66-2.54-8.59c-1.48,1.19-2.82,2.27-4.25,3.41
			C130.81,140.8,132.98,142.53,135.16,144.26z M136.46,123.17c2.3-1.86,4.47-3.6,6.79-5.48c-2.93,0-5.62,0-8.41,0
			C135.39,119.53,135.91,121.28,136.46,123.17z M125.23,109.94c-0.86-2.89-1.7-5.71-2.55-8.58c-0.51,0.92-2.52,7.91-2.48,8.58
			C121.84,109.94,123.48,109.94,125.23,109.94z"/>
		<path class="st7" d="M121.92,134.56c-0.1,0.39-0.37,0.52-0.58,0.69c-1.16,0.94-2.33,1.88-3.51,2.81c-0.58,0.46-0.59,0.46-1.17,0
			c-2.44-1.95-4.87-3.91-7.3-5.86c-8.63-6.9-17.25-13.8-25.88-20.71c-0.24-0.19-0.52-0.34-0.68-0.62c0.61-0.2,28.07-0.29,29.53-0.09
			c0.03,0.38-0.13,0.72-0.23,1.07c-0.41,1.41-0.82,2.81-1.24,4.22c-0.26,0.86-0.26,0.87-1.14,0.87c-2.78,0.02-5.56,0.03-8.33,0.05
			c-0.34,0-0.68-0.07-1.14,0.16c0.86,0.82,1.78,1.47,2.65,2.18c0.92,0.75,1.85,1.49,2.77,2.23c0.9,0.72,1.8,1.44,2.7,2.17
			c0.9,0.72,1.8,1.45,2.7,2.17c0.9,0.72,1.8,1.45,2.7,2.17c0.93,0.74,1.86,1.47,2.79,2.21c0.9,0.72,1.8,1.44,2.7,2.17
			C120.16,133.15,121.05,133.87,121.92,134.56z"/>
		<path class="st7" d="M130.76,128.75c0.56,1.9,1.12,3.79,1.68,5.67c0.11,0.36-0.03,0.58-0.31,0.8c-0.81,0.63-1.61,1.29-2.41,1.93
			c-10.26,8.22-20.51,16.44-30.77,24.65c-0.26,0.21-0.49,0.49-1,0.61c1.5-5.25,3.04-10.39,4.55-15.54
			c1.51-5.14,3.02-10.28,4.53-15.41c0.35-0.01,0.51,0.2,0.7,0.35c1.2,0.95,2.37,1.93,3.59,2.86c0.45,0.34,0.53,0.65,0.37,1.18
			c-0.93,3.08-1.82,6.16-2.71,9.25c-0.09,0.29-0.16,0.59-0.25,0.92c0.18-0.06,0-0.01,0.12,0.03c0.03,0.01,0.07,0.01,0.09,0
			c0.06-0.03,0.11-0.06,0.16-0.1c0.15-0.11,0.29-0.23,0.44-0.35c6.95-5.56,13.89-11.12,20.84-16.68c0.05-0.04,0.1-0.07,0.16-0.1
			C130.56,128.8,130.59,128.8,130.76,128.75z"/>
		<path class="st7" d="M162.46,110.91c-7.93,6.36-15.86,12.73-23.77,19.07c-0.3-0.14-0.31-0.38-0.36-0.57
			c-0.48-1.61-0.92-3.24-1.43-4.84c-0.17-0.54-0.06-0.85,0.37-1.19c2.35-1.86,4.67-3.75,7-5.64c0.24-0.19,0.53-0.33,0.68-0.68
			c-0.34-0.23-0.72-0.13-1.07-0.13c-8.11-0.01-16.23,0-24.34,0c-1.56,0-1.56,0-1.12-1.51c0.39-1.35,0.81-2.69,1.17-4.04
			c0.14-0.5,0.37-0.75,0.91-0.68c0.34,0.04,0.69,0.01,1.03,0.01c13.26,0,26.53,0,39.79-0.01c0.36,0,0.73,0,1.09,0
			C162.43,110.76,162.44,110.84,162.46,110.91z"/>
		<path class="st7" d="M147.02,162.3c-1.33-0.93-2.56-1.99-3.82-3c-6.37-5.08-12.73-10.17-19.09-15.25
			c-0.27-0.21-0.53-0.43-0.76-0.63c-0.05-0.29,0.14-0.38,0.28-0.49c1.26-1.02,2.53-2.03,3.8-3.04c0.57-0.45,0.58-0.45,1.18,0.03
			c2.35,1.86,4.69,3.73,7.03,5.59c0.24,0.19,0.49,0.37,0.82,0.52c-0.78-3.16-1.74-6.26-2.65-9.37c-0.93-3.17-1.87-6.34-2.8-9.51
			c-0.92-3.13-1.84-6.27-2.79-9.51c1.22,0,2.3,0,3.39,0c0.62,0,1.25,0.03,1.87-0.01c0.5-0.03,0.71,0.19,0.84,0.64
			c0.6,2.1,1.23,4.19,1.85,6.28c3.62,12.26,7.23,24.52,10.85,36.78c0.08,0.27,0.14,0.54,0.21,0.81
			C147.15,162.2,147.09,162.25,147.02,162.3z"/>
		<path class="st7" d="M122.68,78.85c3.08,10.41,6.12,20.71,9.2,31.11c-1.95,0-3.75-0.01-5.56,0c-0.33,0-0.43-0.19-0.5-0.44
			c-0.15-0.51-0.31-1.02-0.46-1.52c-0.81-2.72-1.62-5.44-2.43-8.16c-0.07-0.24-0.15-0.47-0.32-0.72c-1.08,3.07-1.93,6.2-2.86,9.31
			c-0.95,3.17-1.87,6.34-2.81,9.51c-0.92,3.13-1.84,6.26-2.8,9.51c-1.56-1.25-2.99-2.4-4.43-3.54c-0.35-0.28-0.26-0.57-0.16-0.92
			c0.68-2.3,1.36-4.61,2.03-6.91c3.53-12,7.06-23.99,10.6-35.99C122.29,79.71,122.34,79.29,122.68,78.85z"/>
		<path class="st5" d="M122.63,117.64c1.44,0,2.87,0.01,4.31-0.01c0.4,0,0.6,0.1,0.73,0.52c0.89,3.08,1.81,6.16,2.73,9.23
			c0.11,0.37,0.04,0.63-0.28,0.89c-2.37,1.88-4.73,3.77-7.09,5.67c-0.31,0.25-0.52,0.22-0.81-0.02c-2.36-1.9-4.72-3.79-7.09-5.67
			c-0.32-0.26-0.37-0.52-0.25-0.89c0.92-3.07,1.83-6.15,2.72-9.23c0.12-0.42,0.34-0.51,0.74-0.51
			C119.76,117.65,121.19,117.64,122.63,117.64z"/>
		<path class="st5" d="M102.18,117.68c2.7,0,5.4,0,8.21,0c-0.53,1.82-1.05,3.59-1.61,5.49c-2.28-1.83-4.47-3.58-6.65-5.32
			C102.15,117.79,102.17,117.73,102.18,117.68z"/>
		<path class="st5" d="M112.46,135.57c1.44,1.15,2.8,2.24,4.26,3.41c-2.25,1.81-4.43,3.55-6.61,5.29c-0.05-0.04-0.11-0.07-0.16-0.11
			C110.78,141.33,111.6,138.5,112.46,135.57z"/>
		<path class="st5" d="M135.16,144.26c-2.18-1.73-4.35-3.47-6.64-5.29c1.43-1.15,2.78-2.23,4.25-3.41c0.87,2.93,1.7,5.76,2.54,8.59
			C135.26,144.19,135.21,144.23,135.16,144.26z"/>
		<path class="st5" d="M136.46,123.17c-0.56-1.89-1.07-3.64-1.61-5.48c2.79,0,5.48,0,8.41,0
			C140.93,119.57,138.77,121.31,136.46,123.17z"/>
		<path class="st5" d="M125.23,109.94c-1.75,0-3.39,0-5.03,0c-0.05-0.67,1.96-7.66,2.48-8.58
			C123.53,104.24,124.37,107.05,125.23,109.94z"/>
		<path class="st7" d="M147.22,162.14c0,0.08,0.03,0.18-0.01,0.22c-0.07,0.07-0.14,0-0.19-0.07
			C147.09,162.25,147.15,162.2,147.22,162.14z"/>
		<rect x="3.06" y="1.91" class="st5" width="241.5" height="45.69"/>
		<rect x="3.06" y="195.87" class="st5" width="241.5" height="45.69"/>
	</g>
</g>
</svg>
