<?xml version="1.0" encoding="utf-8"?>
<!-- Generator: Adobe Illustrator 24.0.1, SVG Export Plug-In . SVG Version: 6.00 Build 0)  -->
<svg version="1.1" id="Calque_1" xmlns="http://www.w3.org/2000/svg" xmlns:xlink="http://www.w3.org/1999/xlink" x="0px" y="0px"
	 viewBox="0 0 246.05 243.18" style="enable-background:new 0 0 246.05 243.18;" xml:space="preserve">
<style type="text/css">
	.st0{fill:#FFFFFF;}
	.st1{stroke:#FFFFFF;stroke-width:0.7045;stroke-miterlimit:10;}
	.st2{stroke:#FFFFFF;stroke-linecap:round;stroke-linejoin:round;stroke-miterlimit:10;}
	.st3{stroke:#FFFFFF;stroke-width:0.5;stroke-miterlimit:10;}
	.st4{clip-path:url(#SVGID_2_);}
	.st5{fill:#E6292A;}
	.st6{fill:#19180F;}
	.st7{fill:#00873C;}
	.st8{clip-path:url(#SVGID_4_);}
	.st9{fill:#009641;}
	.st10{fill:#E62E39;}
	.st11{clip-path:url(#SVGID_6_);}
	.st12{fill:#FCC000;}
	.st13{fill:#E4101E;}
	.st14{fill:#FEC700;}
	.st15{fill:#CA2119;}
	.st16{fill:#C1ACA0;}
	.st17{fill:#C7291C;}
	.st18{fill:#CBD0D3;}
	.st19{fill:#C81C18;}
	.st20{fill:#EDB50A;}
	.st21{fill:#B3B7BC;}
	.st22{fill:#7C91B3;}
	.st23{fill:#AF8F12;}
	.st24{fill:#EEB400;}
	.st25{fill:#B19934;}
	.st26{fill:#BF1918;}
	.st27{fill:#F6B900;}
	.st28{fill:#B1521C;}
	.st29{fill:#AD6516;}
	.st30{fill:#AC7514;}
	.st31{fill:#933D15;}
	.st32{fill:#AB7614;}
	.st33{fill:#D4BA00;}
	.st34{fill:#D06216;}
	.st35{fill:#D79C01;}
	.st36{fill:#AA5817;}
	.st37{fill:#A98316;}
	.st38{fill:#B21A18;}
	.st39{fill:#BDB6AC;}
	.st40{fill:#CFB400;}
	.st41{fill:#B09813;}
	.st42{fill:#B3911E;}
	.st43{fill:#AC9325;}
	.st44{fill:#987E17;}
	.st45{fill:#B29A34;}
	.st46{fill:#6F8CB5;}
	.st47{fill:#AA8913;}
	.st48{fill:#AF2717;}
	.st49{fill:#C32518;}
	.st50{fill:#A78D15;}
	.st51{fill:#B91D18;}
	.st52{fill:#905C17;}
	.st53{fill:#D6B400;}
	.st54{fill:#D7B700;}
	.st55{fill:#A5A5AC;}
	.st56{fill:#CE3817;}
	.st57{fill:#D99E00;}
	.st58{fill:#C19823;}
	.st59{fill:#A68D15;}
	.st60{fill:#F7B200;}
	.st61{fill:#6F4414;}
	.st62{fill:#B3B6BB;}
	.st63{fill:#D6BC00;}
	.st64{fill:#986E40;}
	.st65{fill:#AF9528;}
	.st66{fill:#C4A804;}
	.st67{fill:#A08E29;}
	.st68{fill:#FDC500;}
	.st69{fill:#A9ABAD;}
	.st70{fill:#AE8C12;}
	.st71{fill:#BFBBBB;}
	.st72{fill:#D18110;}
	.st73{fill:#A08B25;}
	.st74{fill:#A88914;}
	.st75{fill:#917E1B;}
	.st76{fill:#AAB0B8;}
	.st77{fill:#EFAE00;}
	.st78{fill:#CB1718;}
	.st79{fill:#967E19;}
	.st80{fill:#7A785D;}
	.st81{fill:#BE9F0B;}
	.st82{fill:#B2B6BB;}
	.st83{fill:#467CB8;}
	.st84{fill:#778FB3;}
	.st85{fill:#97989D;}
	.st86{fill:#8A6E17;}
	.st87{fill:#D17A12;}
	.st88{fill:#00519E;}
	.st89{fill:#B9271A;}
	.st90{fill:#CD4417;}
	.st91{fill:#D2870E;}
	.st92{fill:#D0B500;}
	.st93{fill:#BE1918;}
	.st94{fill:#CB2519;}
	.st95{fill:#D28010;}
	.st96{fill:#D39308;}
	.st97{fill:#D29905;}
	.st98{fill:#937E1A;}
	.st99{fill:#CE900A;}
	.st100{fill:#D29805;}
	.st101{fill:#D29904;}
	.st102{fill:#84928F;}
	.st103{fill:#C9AD79;}
	.st104{fill:#AF9767;}
	.st105{fill:#C3C9C7;}
	.st106{fill:#CECECE;}
	.st107{fill:#ADACAC;}
	.st108{fill:#C33A21;}
	.st109{fill:#CA1719;}
	.st110{fill:#A8501D;}
	.st111{fill:#C13218;}
	.st112{fill:#C62518;}
	.st113{fill:#9D8328;}
	.st114{fill:#C81F18;}
	.st115{fill:#C9CCD1;}
	.st116{fill:#A79216;}
	.st117{fill:#AE1A17;}
	.st118{fill:#AB2323;}
	.st119{fill:#C72018;}
	.st120{fill:#B3B2B2;}
	.st121{fill:#B4B4B9;}
	.st122{fill:#CBD0D6;}
	.st123{fill:#F6BC00;}
	.st124{fill:#B92B1E;}
	.st125{fill:#A97B14;}
	.st126{fill:#A28C17;}
	.st127{fill:#AF9E15;}
	.st128{fill:#D3B900;}
	.st129{fill:#CD161A;}
	.st130{fill:#CAC9C9;}
	.st131{fill:#A69618;}
	.st132{fill:#9D5A16;}
	.st133{fill:#CC191B;}
	.st134{fill:#AE4D18;}
	.st135{fill:#A77914;}
	.st136{fill:#CB171B;}
	.st137{fill:#A5871A;}
	.st138{fill:#8A8779;}
	.st139{fill:#007B58;}
	.st140{fill:#988419;}
	.st141{fill:#965915;}
	.st142{fill:#A99D8B;}
	.st143{fill:#CCD0D6;}
	.st144{fill:#007362;}
	.st145{fill:#394D50;}
	.st146{fill:#B2B1B0;}
	.st147{fill:#005BA7;}
	.st148{fill:#004F94;}
	.st149{fill:#C61818;}
	.st150{fill:#D0880E;}
	.st151{fill:#08549B;}
	.st152{fill:#D18F0A;}
	.st153{fill:#CB1C18;}
	.st154{fill:#D09706;}
	.st155{fill:#779938;}
	.st156{fill:#CF4117;}
	.st157{fill:#CF870E;}
	.st158{fill:#CC2B19;}
	.st159{fill:#009373;}
	.st160{fill:#AB351A;}
	.st161{fill:#325492;}
	.st162{fill:#CA1D19;}
	.st163{fill:#CC3718;}
	.st164{fill:#CB3F19;}
	.st165{fill:#CC2F18;}
	.st166{fill:#D28253;}
	.st167{fill:#B15939;}
	.st168{fill:#B42C18;}
	.st169{fill:#B08E13;}
	.st170{fill:#D7BF00;}
	.st171{fill:#9B4116;}
	.st172{fill:#C1B007;}
	.st173{fill:#957E18;}
	.st174{fill:#AA1A17;}
	.st175{fill:#7D6B1A;}
	.st176{fill:#9E8218;}
	.st177{fill:#7D731E;}
	.st178{fill:#931A15;}
	.st179{fill:#AE201E;}
	.st180{fill:#55606E;}
	.st181{fill:#996D16;}
	.st182{fill:#E46698;}
	.st183{fill:#C4C8C6;}
	.st184{fill:#E86EA1;}
	.st185{fill:#CF7D9C;}
	.st186{fill:#C89AAA;}
	.st187{fill:#ED6CA3;}
	.st188{fill:#CAC8C8;}
	.st189{fill:#E56399;}
	.st190{fill:#A5A19D;}
	.st191{fill:#ED6CA2;}
	.st192{fill:#CFB1BC;}
	.st193{fill:#ED6CA4;}
	.st194{fill:#AD6D80;}
	.st195{fill:#D0D6D6;}
	.st196{fill:#B24B73;}
	.st197{fill:#8F8C24;}
	.st198{fill:#C32819;}
	.st199{fill:#A67A1E;}
	.st200{fill:#AC9915;}
	.st201{fill:#005AA4;}
	.st202{fill:#284E91;}
	.st203{fill:#9A862C;}
	.st204{fill:#988537;}
	.st205{fill:#D2860E;}
	.st206{fill:#BF970B;}
	.st207{fill:#90822E;}
	.st208{fill:#934F16;}
	.st209{fill:#CD1618;}
	.st210{fill:#912314;}
	.st211{fill:#BB920D;}
	.st212{fill:#355690;}
	.st213{fill:#005AA7;}
	.st214{fill:#DA78A1;}
	.st215{fill:#D64F84;}
	.st216{fill:#A9931C;}
	.st217{clip-path:url(#SVGID_8_);}
	.st218{fill:#1C2A4C;}
	.st219{fill:#E51E2A;}
	.st220{clip-path:url(#SVGID_10_);fill:#E7373C;}
	.st221{clip-path:url(#SVGID_10_);fill:#FFFFFF;}
	.st222{clip-path:url(#SVGID_10_);fill:#20315C;}
</style>
<g>
	<defs>
		<circle id="SVGID_5_" cx="386.28" cy="121.59" r="119.97"/>
	</defs>
	<clipPath id="SVGID_2_">
		<use xlink:href="#SVGID_5_"  style="overflow:visible;"/>
	</clipPath>
	<g class="st4">
		<path class="st12" d="M233.64,175.81c0-32.71,0-65.41,0-98.12c1.91-1.94,4.39-1.63,6.76-1.63c96.95-0.02,193.9-0.02,290.85,0.01
			c2.16,0,4.47-0.41,6.3,1.31c0.75,1.16,0.52,2.48,0.52,3.74c0.01,30.54,0.01,61.08,0.01,91.62c0,1.09,0.1,2.2-0.38,3.24
			c-1.75,1.86-4.08,1.46-6.24,1.46c-97.02,0.03-194.03,0.03-291.05,0.01C238.03,177.44,235.55,177.74,233.64,175.81z"/>
		<path class="st13" d="M233.64,249.03c0-23.95,0-47.9,0-71.85c1.72-1.4,3.6-0.74,5.41-0.74c97.69-0.04,195.37-0.03,293.06-0.01
			c1.82,0,3.68-0.45,5.47,0.52c0.8,1.93,0.48,4.06,0.49,6.11c0.02,19.76-0.19,39.52,0.13,59.27c0.11,6.49-1.47,8.4-5.63,7.51
			c-0.54-0.12-1.1-0.02-1.65-0.02c-96.92,0-193.84,0.01-290.76-0.04C237.98,249.76,235.73,250.53,233.64,249.03z"/>
		<path class="st13" d="M233.64,76.2c0-24.77,0.12-49.55-0.1-74.32c-0.05-5.23,0.67-6.28,3.97-6.27
			c61.14,0.2,122.29,0.14,183.43,0.14c38.86,0,77.72,0,116.58,0c1.19,9.18,0.53,18.47,0.49,27.69c-0.08,17.66,0.68,35.35-0.42,52.99
			c-1.96,1.19-4.01,0.61-6.01,0.61c-97.33,0.03-194.66,0.03-291.98-0.01C237.61,77.04,235.54,77.84,233.64,76.2z"/>
		<path class="st14" d="M537.34,76.39c0,0.43-0.01,0.87-0.01,1.3c-101.23,0-202.46,0-303.7,0c0-0.37,0-0.73,0-1.1
			c2.57-0.06,5.15-0.16,7.72-0.16C340.02,76.41,438.68,76.4,537.34,76.39z"/>
		<path class="st14" d="M537.33,175.8c0,0.43,0.01,0.87,0.01,1.3c-98.66-0.01-197.32-0.02-295.99-0.04c-2.57,0-5.15-0.1-7.72-0.16
			c0-0.37,0-0.73,0-1.1C334.87,175.81,436.1,175.81,537.33,175.8z"/>
	</g>
</g>
<g>
	<defs>
		<circle id="SVGID_7_" cx="123.02" cy="121.59" r="119.97"/>
	</defs>
	<clipPath id="SVGID_4_">
		<use xlink:href="#SVGID_7_"  style="overflow:visible;"/>
	</clipPath>
	<g class="st8">
		<path class="st0" d="M0.21,241.54c-0.06-0.04-0.2,0.1-0.19-0.1c0.01-0.26,0-0.51,0-0.77c0-79.92,0-159.84-0.02-239.76
			c0-0.72,0.16-0.88,0.88-0.88c81.43,0.02,162.86,0.02,244.28,0.03c0.28,0,0.65-0.22,0.86,0.18c-26.88,0-53.76,0-80.64,0
			c-1.31,0-1.31,0-1.31,1.31c0,79.55,0,159.1,0,238.64c0,0.45-0.03,0.89-0.05,1.34c-27.27,0-54.54,0-81.81,0
			c-0.02-0.41-0.05-0.83-0.05-1.24c0-79.56,0-159.11,0-238.67c0-1.38,0-1.38-1.33-1.38c-26.47,0-52.93,0.01-79.4-0.02
			c-0.96,0-1.25,0.18-1.25,1.21C0.21,81.46,0.21,161.5,0.21,241.54z"/>
		<path class="st218" d="M0.21,241.54c0-80.04,0-160.07-0.03-240.11c0-1.03,0.29-1.21,1.25-1.21c26.47,0.03,52.93,0.02,79.4,0.02
			c1.33,0,1.33,0,1.33,1.38c0,79.56,0,159.11,0,238.67c0,0.41,0.03,0.83,0.05,1.24C54.88,241.54,27.54,241.54,0.21,241.54z"/>
		<path class="st219" d="M164.03,241.54c0.02-0.45,0.05-0.89,0.05-1.34c0-79.55,0-159.1,0-238.64c0-1.31,0-1.31,1.31-1.31
			c26.88,0,53.76,0,80.64,0c0,80.14,0,160.29,0.02,240.43c0,0.72-0.16,0.88-0.88,0.88C218.12,241.53,191.07,241.54,164.03,241.54z"
			/>
	</g>
</g>
<g>
	<defs>
		<circle id="SVGID_9_" cx="-130" cy="121.59" r="119.97"/>
	</defs>
	<clipPath id="SVGID_6_">
		<use xlink:href="#SVGID_9_"  style="overflow:visible;"/>
	</clipPath>
	<rect x="-280.17" y="0.68" style="clip-path:url(#SVGID_6_);fill:#E7373C;" width="333.29" height="242.39"/>
	<rect x="-280.17" y="91.58" style="clip-path:url(#SVGID_6_);fill:#FFFFFF;" width="333.29" height="60.6"/>
	<rect x="-280.17" y="106.73" style="clip-path:url(#SVGID_6_);fill:#20315C;" width="333.29" height="30.3"/>
</g>
</svg>
