<?xml version="1.0" encoding="utf-8"?>
<!-- Generator: Adobe Illustrator 24.0.1, SVG Export Plug-In . SVG Version: 6.00 Build 0)  -->
<svg version="1.1" id="Calque_1" xmlns="http://www.w3.org/2000/svg" xmlns:xlink="http://www.w3.org/1999/xlink" x="0px" y="0px"
	 viewBox="0 0 246.05 243.18" style="enable-background:new 0 0 246.05 243.18;" xml:space="preserve">
<style type="text/css">
	.st0{fill:#FFFFFF;}
	.st1{stroke:#FFFFFF;stroke-width:0.7045;stroke-miterlimit:10;}
	.st2{stroke:#FFFFFF;stroke-linecap:round;stroke-linejoin:round;stroke-miterlimit:10;}
	.st3{stroke:#FFFFFF;stroke-width:0.5;stroke-miterlimit:10;}
	.st4{clip-path:url(#SVGID_2_);}
	.st5{fill:#E6292A;}
	.st6{fill:#19180F;}
	.st7{fill:#00873C;}
	.st8{clip-path:url(#SVGID_4_);}
	.st9{fill:#009641;}
	.st10{fill:#E62E39;}
	.st11{clip-path:url(#SVGID_6_);}
	.st12{fill:#FCC000;}
	.st13{fill:#E4101E;}
	.st14{fill:#FEC700;}
	.st15{fill:#CA2119;}
	.st16{fill:#C1ACA0;}
	.st17{fill:#C7291C;}
	.st18{fill:#CBD0D3;}
	.st19{fill:#C81C18;}
	.st20{fill:#EDB50A;}
	.st21{fill:#B3B7BC;}
	.st22{fill:#7C91B3;}
	.st23{fill:#AF8F12;}
	.st24{fill:#EEB400;}
	.st25{fill:#B19934;}
	.st26{fill:#BF1918;}
	.st27{fill:#F6B900;}
	.st28{fill:#B1521C;}
	.st29{fill:#AD6516;}
	.st30{fill:#AC7514;}
	.st31{fill:#933D15;}
	.st32{fill:#AB7614;}
	.st33{fill:#D4BA00;}
	.st34{fill:#D06216;}
	.st35{fill:#D79C01;}
	.st36{fill:#AA5817;}
	.st37{fill:#A98316;}
	.st38{fill:#B21A18;}
	.st39{fill:#BDB6AC;}
	.st40{fill:#CFB400;}
	.st41{fill:#B09813;}
	.st42{fill:#B3911E;}
	.st43{fill:#AC9325;}
	.st44{fill:#987E17;}
	.st45{fill:#B29A34;}
	.st46{fill:#6F8CB5;}
	.st47{fill:#AA8913;}
	.st48{fill:#AF2717;}
	.st49{fill:#C32518;}
	.st50{fill:#A78D15;}
	.st51{fill:#B91D18;}
	.st52{fill:#905C17;}
	.st53{fill:#D6B400;}
	.st54{fill:#D7B700;}
	.st55{fill:#A5A5AC;}
	.st56{fill:#CE3817;}
	.st57{fill:#D99E00;}
	.st58{fill:#C19823;}
	.st59{fill:#A68D15;}
	.st60{fill:#F7B200;}
	.st61{fill:#6F4414;}
	.st62{fill:#B3B6BB;}
	.st63{fill:#D6BC00;}
	.st64{fill:#986E40;}
	.st65{fill:#AF9528;}
	.st66{fill:#C4A804;}
	.st67{fill:#A08E29;}
	.st68{fill:#FDC500;}
	.st69{fill:#A9ABAD;}
	.st70{fill:#AE8C12;}
	.st71{fill:#BFBBBB;}
	.st72{fill:#D18110;}
	.st73{fill:#A08B25;}
	.st74{fill:#A88914;}
	.st75{fill:#917E1B;}
	.st76{fill:#AAB0B8;}
	.st77{fill:#EFAE00;}
	.st78{fill:#CB1718;}
	.st79{fill:#967E19;}
	.st80{fill:#7A785D;}
	.st81{fill:#BE9F0B;}
	.st82{fill:#B2B6BB;}
	.st83{fill:#467CB8;}
	.st84{fill:#778FB3;}
	.st85{fill:#97989D;}
	.st86{fill:#8A6E17;}
	.st87{fill:#D17A12;}
	.st88{fill:#00519E;}
	.st89{fill:#B9271A;}
	.st90{fill:#CD4417;}
	.st91{fill:#D2870E;}
	.st92{fill:#D0B500;}
	.st93{fill:#BE1918;}
	.st94{fill:#CB2519;}
	.st95{fill:#D28010;}
	.st96{fill:#D39308;}
	.st97{fill:#D29905;}
	.st98{fill:#937E1A;}
	.st99{fill:#CE900A;}
	.st100{fill:#D29805;}
	.st101{fill:#D29904;}
	.st102{fill:#84928F;}
	.st103{fill:#C9AD79;}
	.st104{fill:#AF9767;}
	.st105{fill:#C3C9C7;}
	.st106{fill:#CECECE;}
	.st107{fill:#ADACAC;}
	.st108{fill:#C33A21;}
	.st109{fill:#CA1719;}
	.st110{fill:#A8501D;}
	.st111{fill:#C13218;}
	.st112{fill:#C62518;}
	.st113{fill:#9D8328;}
	.st114{fill:#C81F18;}
	.st115{fill:#C9CCD1;}
	.st116{fill:#A79216;}
	.st117{fill:#AE1A17;}
	.st118{fill:#AB2323;}
	.st119{fill:#C72018;}
	.st120{fill:#B3B2B2;}
	.st121{fill:#B4B4B9;}
	.st122{fill:#CBD0D6;}
	.st123{fill:#F6BC00;}
	.st124{fill:#B92B1E;}
	.st125{fill:#A97B14;}
	.st126{fill:#A28C17;}
	.st127{fill:#AF9E15;}
	.st128{fill:#D3B900;}
	.st129{fill:#CD161A;}
	.st130{fill:#CAC9C9;}
	.st131{fill:#A69618;}
	.st132{fill:#9D5A16;}
	.st133{fill:#CC191B;}
	.st134{fill:#AE4D18;}
	.st135{fill:#A77914;}
	.st136{fill:#CB171B;}
	.st137{fill:#A5871A;}
	.st138{fill:#8A8779;}
	.st139{fill:#007B58;}
	.st140{fill:#988419;}
	.st141{fill:#965915;}
	.st142{fill:#A99D8B;}
	.st143{fill:#CCD0D6;}
	.st144{fill:#007362;}
	.st145{fill:#394D50;}
	.st146{fill:#B2B1B0;}
	.st147{fill:#005BA7;}
	.st148{fill:#004F94;}
	.st149{fill:#C61818;}
	.st150{fill:#D0880E;}
	.st151{fill:#08549B;}
	.st152{fill:#D18F0A;}
	.st153{fill:#CB1C18;}
	.st154{fill:#D09706;}
	.st155{fill:#779938;}
	.st156{fill:#CF4117;}
	.st157{fill:#CF870E;}
	.st158{fill:#CC2B19;}
	.st159{fill:#009373;}
	.st160{fill:#AB351A;}
	.st161{fill:#325492;}
	.st162{fill:#CA1D19;}
	.st163{fill:#CC3718;}
	.st164{fill:#CB3F19;}
	.st165{fill:#CC2F18;}
	.st166{fill:#D28253;}
	.st167{fill:#B15939;}
	.st168{fill:#B42C18;}
	.st169{fill:#B08E13;}
	.st170{fill:#D7BF00;}
	.st171{fill:#9B4116;}
	.st172{fill:#C1B007;}
	.st173{fill:#957E18;}
	.st174{fill:#AA1A17;}
	.st175{fill:#7D6B1A;}
	.st176{fill:#9E8218;}
	.st177{fill:#7D731E;}
	.st178{fill:#931A15;}
	.st179{fill:#AE201E;}
	.st180{fill:#55606E;}
	.st181{fill:#996D16;}
	.st182{fill:#E46698;}
	.st183{fill:#C4C8C6;}
	.st184{fill:#E86EA1;}
	.st185{fill:#CF7D9C;}
	.st186{fill:#C89AAA;}
	.st187{fill:#ED6CA3;}
	.st188{fill:#CAC8C8;}
	.st189{fill:#E56399;}
	.st190{fill:#A5A19D;}
	.st191{fill:#ED6CA2;}
	.st192{fill:#CFB1BC;}
	.st193{fill:#ED6CA4;}
	.st194{fill:#AD6D80;}
	.st195{fill:#D0D6D6;}
	.st196{fill:#B24B73;}
	.st197{fill:#8F8C24;}
	.st198{fill:#C32819;}
	.st199{fill:#A67A1E;}
	.st200{fill:#AC9915;}
	.st201{fill:#005AA4;}
	.st202{fill:#284E91;}
	.st203{fill:#9A862C;}
	.st204{fill:#988537;}
	.st205{fill:#D2860E;}
	.st206{fill:#BF970B;}
	.st207{fill:#90822E;}
	.st208{fill:#934F16;}
	.st209{fill:#CD1618;}
	.st210{fill:#912314;}
	.st211{fill:#BB920D;}
	.st212{fill:#355690;}
	.st213{fill:#005AA7;}
	.st214{fill:#DA78A1;}
	.st215{fill:#D64F84;}
	.st216{fill:#A9931C;}
	.st217{clip-path:url(#SVGID_8_);}
	.st218{fill:#1C2A4C;}
	.st219{fill:#E51E2A;}
	.st220{clip-path:url(#SVGID_10_);fill:#E7373C;}
	.st221{clip-path:url(#SVGID_10_);fill:#FFFFFF;}
	.st222{clip-path:url(#SVGID_10_);fill:#20315C;}
</style>
<g>
	<defs>
		<circle id="SVGID_5_" cx="123.02" cy="121.59" r="119.97"/>
	</defs>
	<clipPath id="SVGID_2_">
		<use xlink:href="#SVGID_5_"  style="overflow:visible;"/>
	</clipPath>
	<g class="st4">
		<path class="st12" d="M-29.62,175.81c0-32.71,0-65.41,0-98.12c1.91-1.94,4.39-1.63,6.76-1.63c96.95-0.02,193.9-0.02,290.85,0.01
			c2.16,0,4.47-0.41,6.3,1.31c0.75,1.16,0.52,2.48,0.52,3.74c0.01,30.54,0.01,61.08,0.01,91.62c0,1.09,0.1,2.2-0.38,3.24
			c-1.75,1.86-4.08,1.46-6.24,1.46c-97.02,0.03-194.03,0.03-291.05,0.01C-25.23,177.44-27.71,177.74-29.62,175.81z"/>
		<path class="st13" d="M-29.62,249.03c0-23.95,0-47.9,0-71.85c1.72-1.4,3.6-0.74,5.41-0.74c97.69-0.04,195.37-0.03,293.06-0.01
			c1.82,0,3.68-0.45,5.47,0.52c0.8,1.93,0.48,4.06,0.49,6.11c0.02,19.76-0.19,39.52,0.13,59.27c0.11,6.49-1.47,8.4-5.63,7.51
			c-0.54-0.12-1.1-0.02-1.65-0.02c-96.92,0-193.84,0.01-290.76-0.04C-25.28,249.76-27.53,250.53-29.62,249.03z"/>
		<path class="st13" d="M-29.62,76.2c0-24.77,0.12-49.55-0.1-74.32c-0.05-5.23,0.67-6.28,3.97-6.27
			c61.14,0.2,122.29,0.14,183.43,0.14c38.86,0,77.72,0,116.58,0c1.19,9.18,0.53,18.47,0.49,27.69c-0.08,17.66,0.68,35.35-0.42,52.99
			c-1.96,1.19-4.01,0.61-6.01,0.61c-97.33,0.03-194.66,0.03-291.98-0.01C-25.65,77.04-27.72,77.84-29.62,76.2z"/>
		<path class="st14" d="M274.09,76.39c0,0.43-0.01,0.87-0.01,1.3c-101.23,0-202.46,0-303.7,0c0-0.37,0-0.73,0-1.1
			c2.57-0.06,5.15-0.16,7.72-0.16C76.76,76.41,175.42,76.4,274.09,76.39z"/>
		<path class="st14" d="M274.07,175.8c0,0.43,0.01,0.87,0.01,1.3c-98.66-0.01-197.32-0.02-295.99-0.04c-2.57,0-5.15-0.1-7.72-0.16
			c0-0.37,0-0.73,0-1.1C71.61,175.81,172.84,175.81,274.07,175.8z"/>
		<path class="st15" d="M92.1,154.82c-1.72,4.49-4.69,7.49-9.69,8.05c-1.88,0.65-3.72-0.63-5.6-0.1c-0.83,0.16-1.63,0.09-2.4-0.25
			c-1.05-0.49-1.59-1.44-2.17-2.37c-0.28-0.46-0.53-0.94-0.73-1.44c-0.37-0.74-0.72-1.48-0.93-2.28c-0.14-0.84-0.16-1.69-0.18-2.54
			c0.17-2.31-0.52-4.74,0.99-6.86c0.68-0.64,1.5-0.9,2.43-0.86c1.24,0.22,2.02,0.92,2.27,2.17c0.15,2.16-1.03,4.42,0.5,6.47
			c0.87,1.33,1.93,2.42,3.56,2.79c1.27,0.38,2.54,0.34,3.8-0.04c1.35-0.4,2.28-1.26,2.84-2.54c0.36-1.31,1.06-2.51,1.18-3.89
			c0.26-1.8-0.52-3.27-1.46-4.71c-0.53-1.06-0.56-2.2-0.55-3.35c0.05-1.36,0.52-2.5,1.67-3.31c1.72-0.78,3.3-0.74,4.61,0.8
			C92.57,145.32,92.79,150.07,92.1,154.82z"/>
		<path class="st16" d="M97.51,137.3c1.35-0.84,0.87-2.15,0.86-3.35c-0.29-0.56-0.25-1.09,0.13-1.6c0.65-0.64,1.45-0.95,2.35-1.03
			c0.89-0.05,1.77,0.01,2.6,0.37c2.28,1.19,3.83,2.79,3.1,5.64c-1.12,1.18-1.43,2.62-1.33,4.19
			C100.37,142.98,97.75,141.54,97.51,137.3z"/>
		<path class="st17" d="M97.51,137.3c1.56,3.25,4.85,3.34,7.71,4.22c0.78,0.46,1.68,0.79,2.33,1.4c1.03,0.96,2.34,2.19,1.18,3.64
			c-1.13,1.42-2.16-0.72-3.37-0.58c-0.23,0.04-0.45,0.09-0.68,0.13c-0.67,0.22-1.35,0.31-2.06,0.21c-1.18-0.23-2.13-0.86-2.97-1.7
			c-0.4-0.55-0.56-1.23-1.02-1.75C95.13,139.93,95.12,139.91,97.51,137.3z"/>
		<path class="st18" d="M44.47,133.39c0.11,0.82,0.21,1.63,0.32,2.45c1.89,4.43-1.32,5.5-4.4,6.66c-1,0.09-1.86-0.19-2.52-0.98
			c-0.09-1.08-0.18-2.16-0.27-3.24c-1.19-1.43-1.72-2.98-0.84-4.77c0.31-0.45,0.71-0.83,1.17-1.12c0.43-0.3,0.9-0.52,1.4-0.68
			c1.73-0.19,3.46-0.25,5.1,0.56c0.3,0.24,0.4,0.49,0.31,0.74C44.66,133.26,44.56,133.39,44.47,133.39z"/>
		<path class="st19" d="M51.92,105.22c0.08-0.72,0.15-1.43,0.23-2.15c2.07-3.62,5.27-3.02,8.51-2.26c1.5,0.87,2.11,2.23,2.16,3.9
			c-0.49,2.17-1.95,3.57-3.77,4.69c-0.54,0.21-1.11,0.29-1.69,0.24C54.94,108.92,52.83,107.81,51.92,105.22z"/>
		<path class="st20" d="M77.43,94.33c2.88-0.69,3.75,2.16,5.65,3.19c1.4,1.78,1.11,3.34-0.62,4.71c-3.45,1.32-6.4-0.04-9.3-1.72
			c-0.42-0.41-0.69-0.92-0.81-1.49c-0.1-1.19,0.36-2.11,1.35-2.76C74.94,95.62,76.55,95.67,77.43,94.33z"/>
		<path class="st21" d="M98.55,129.28c0.09-2.11,0.18-4.22,0.27-6.33c1.13-1.36,3.38-1.72,3.72-0.53c0.94,3.32,2-0.64,2.76,0.28
			c0.77,2.38,0.63,4.76,0.03,7.14c-0.23,0.52-0.57,0.93-1.05,1.25c-1.38,0.55-2.71,0.02-4.05-0.16
			C99.41,130.63,98.82,130.11,98.55,129.28z"/>
		<path class="st22" d="M46.55,159.36c0.36,0.39,0.73,0.77,1.09,1.16c1.19,2.29,0.91,3.72-2.09,3.57c-1.88-2.34-4.43,0.54-6.8-0.98
			c-1.53-0.97-1.44-1.35-0.91-2.5c1.17-2.19,3.21-2.74,5.47-2.85C44.64,157.78,45.67,158.42,46.55,159.36z"/>
		<path class="st23" d="M85.21,112.09c-1.24,2.71-1.03,4.51,2.61,4.35c1.41-0.06,2.88-0.17,4.12,0.8c-0.19,0.28-0.37,0.56-0.55,0.84
			c-6.13,1.37-12.32,1.7-18.55,0.89c-0.62-0.18-1.18-0.47-1.68-0.87c-0.45-0.45-0.64-1-0.57-1.64c2.01-3.24,5.9-0.8,8.33-2.75
			c1.29-1.25,2.22-2.93,4.14-3.42C84.24,110.33,85.06,110.81,85.21,112.09z"/>
		<path class="st24" d="M82.03,101.58c0.84-1.23,1.13-2.59,1.05-4.05c2.74,0.2,5.87-0.95,7.78,2.18c0.68,1.04,1.01,2.12,0.42,3.32
			c-2.77,2.26-5.56,1.32-8.34,0.02C82.47,102.67,82.16,102.18,82.03,101.58z"/>
		<path class="st25" d="M37.95,154.9c-0.34-2.63,0.49-5.42-1.15-7.86c-0.42-2.35,0.81-2.86,2.81-2.53c0.45,0.28,0.8,0.67,1.03,1.15
			c0.4,1.64-0.49,3.37,0.35,4.94c0.2,0.24,0.47,0.4,0.8,0.39c0.32-0.19,0.55-0.42,0.69-0.77c0.84-2.44-0.6-5.29,1.44-7.48
			c0.46-0.3,0.94-0.32,1.43-0.11c-0.02,4.07-0.04,8.13-0.05,12.2C42.87,156.96,40.42,157.05,37.95,154.9z"/>
		<path class="st26" d="M45.35,142.63c-0.31,0.02-0.57,0.14-0.79,0.34c-0.42,0.27-0.82,0.55-1.2,0.87
			c-0.88,0.66-1.81,0.84-2.81,0.27c-0.79-0.75-1.31-1.56-0.63-2.66c1.96-1.58,4.96-2.26,4.87-5.62
			C49.5,137.72,47.9,140.14,45.35,142.63z"/>
		<path class="st27" d="M60.93,101.98c-3.07-0.76-5.86,0.65-8.78,1.09c0,0,0.01,0.01,0.01,0.01c-0.79-1.19-0.79-2.37,0.02-3.55
			c0.26-0.3,0.52-0.61,0.78-0.91c2.69-0.67,5.41-0.72,8.15-0.32c0.65,0.64,0.85,1.43,0.75,2.31
			C61.72,101.18,61.41,101.64,60.93,101.98z"/>
		<path class="st28" d="M85.21,112.09c-0.71-0.42-1.42-0.85-2.14-1.27c-0.41,0.33-0.88,0.48-1.41,0.44
			c-0.51-0.12-0.98-0.33-1.42-0.64c-0.18-0.19-0.36-0.39-0.55-0.58c-0.3-0.45-0.5-0.95-0.6-1.48c-0.01-0.55,0.12-1.07,0.37-1.56
			c0.69-0.92,1.64-1.43,2.76-1.65c1.67-0.2,3.27,0.11,4.85,0.66c1.19,0.65,2.48,1.18,3.12,2.51
			C88.54,109.71,86.87,110.9,85.21,112.09z"/>
		<path class="st29" d="M61.13,162.91c-0.77-0.12-1.55-0.25-2.32-0.37c-0.3-0.58-0.46-1.2-0.48-1.86
			c-0.22-5.38-0.09-10.76-0.08-16.14c0-1.77-0.19-3.63,1.24-5.07c0.62-0.39,1.25-0.39,1.88-0.01c2.58,7.18,0.96,14.55,0.94,21.85
			C62.07,161.95,61.68,162.48,61.13,162.91z"/>
		<path class="st30" d="M58.84,161.32c-0.01,0.4-0.02,0.81-0.03,1.21c-0.5-0.32-1-0.65-1.5-0.97c-2.11-7.25-1.88-14.53-0.23-21.82
			c0.56-0.57,1.19-0.66,1.89-0.28C59.47,146.76,59.73,154.04,58.84,161.32z"/>
		<path class="st31" d="M97.85,114.1c0.66-0.48,0.91-0.82,1.19-0.85c2.28-0.23,4.67-0.92,6.7,0.67c0.67,0.52,0.09,1.43-0.51,1.76
			C102.55,117.14,100.15,116.68,97.85,114.1z"/>
		<path class="st32" d="M56.6,161.48c-0.76-0.67-1.51-1.34-2.27-2.01c-0.01-0.33-0.02-0.65-0.04-0.98
			c-0.2-6.42-1.92-12.92,0.98-19.2c0.73-0.25,1.31-0.06,1.74,0.58C56.93,147.07,57.71,154.29,56.6,161.48z"/>
		<path class="st33" d="M56.6,161.48c0.05-7.3,0.1-14.6,0.14-21.9l0.36-0.37l0.34,0.39c0.31,7.32,0.54,14.65-0.14,21.96
			C57.07,161.55,56.83,161.53,56.6,161.48z"/>
		<path class="st34" d="M106.55,137.33c-0.79-1.83-1.96-3.32-3.76-4.26c-0.08-1,0.15-1.86,1.06-2.43c0.01-0.22,0.12-0.36,0.34-0.4
			c1.05-0.17,1.5,0.69,2.15,1.22C111.66,133.23,109.4,135.27,106.55,137.33z"/>
		<path class="st35" d="M92.1,154.82c-0.09-4.76-0.18-9.52-0.27-14.28c-0.36-0.42-0.69-0.85-1-1.31c-0.26-0.5-0.42-1.03-0.48-1.58
			c-0.26-1.5,0.09-2.8,1.26-3.83c0.57-0.28,1.08-0.19,1.52,0.26C92.42,140.98,94.24,148,92.1,154.82z"/>
		<path class="st36" d="M54.33,159.47c-0.48-0.45-0.95-0.9-1.43-1.35c-0.96-6.12-1.34-12.24-0.1-18.38
			c0.55-0.58,1.16-0.64,1.81-0.18c0.32,6.52,0.73,13.04-0.25,19.54L54.33,159.47z"/>
		<path class="st37" d="M57.6,109.05c0.37-0.2,0.73-0.4,1.1-0.6c1.33-0.85,2.62-0.75,3.88,0.16c0.66,0.57,1.09,1.28,1.28,2.14
			c0.06,1.92-0.85,3.16-2.64,3.8c-1.35,0.29-1.86-0.84-2.61-1.56c-0.77-0.7-1.54-1.41-2.3-2.11C56.37,110.01,56.8,109.4,57.6,109.05
			z"/>
		<path class="st38" d="M37.78,133.01c-0.06,1.76-0.12,3.51-0.17,5.27c-3.45,0.11-3.18-2.92-3.67-4.85
			c-0.34-1.34,1.29-1.84,2.69-1.57c0.37,0.18,0.74,0.36,1.11,0.54C37.75,132.6,37.76,132.8,37.78,133.01z"/>
		<path class="st39" d="M69.81,164.67c-3.07,0.28-5.88-0.71-8.67-1.77c0,0,0.11-0.12,0.11-0.12c0.12-0.37,0.32-0.69,0.6-0.97
			c0.29-0.28,0.58-0.53,0.89-0.78c0.51-0.36,1.07-0.61,1.66-0.81c0.4-0.16,0.82-0.24,1.25-0.29c0.44-0.04,0.88-0.06,1.32-0.05
			c0.69,0.01,1.37,0.07,2.03,0.29c0.45,0.18,0.84,0.44,1.19,0.77c0.31,0.37,0.52,0.8,0.66,1.26c0.07,0.48,0.02,0.95-0.11,1.41
			C70.51,164.04,70.2,164.39,69.81,164.67z"/>
		<path class="st40" d="M53.04,139.53c0.37,6.2,0.51,12.39-0.13,18.59c-0.25-0.74-0.51-1.49-0.76-2.23
			c-1.19-5.2-0.29-10.47-0.49-15.7C51.84,139.36,52.3,139.15,53.04,139.53z"/>
		<path class="st41" d="M98.3,119.62c1.46-3.17,4.2-0.79,6.28-1.28c2.43-0.57,1.26,1.92,1.57,3.12c-0.22,0.63-0.66,0.93-1.33,0.9
			c-1.74,0.23-3.45,0.09-5.15-0.33c-0.68-3.25,2.86-0.97,3.41-2.21C101.52,120.23,99.94,120.63,98.3,119.62z"/>
		<path class="st42" d="M37.95,154.9c2.45-0.02,4.9-0.04,7.34-0.07c0.16,0.39,0.32,0.77,0.48,1.16c-0.93,3.92-4.75,1.25-6.67,2.92
			c-0.74,0.29-1.47,0.64-2.29,0.35C36.56,157.64,37,156.2,37.95,154.9z"/>
		<path class="st26" d="M39.92,141.46c0.39,0.75,0.79,1.5,1.18,2.25c0.03,0.42-0.07,0.8-0.3,1.14c-0.31,0.29-0.67,0.42-1.1,0.34
			c-1.42-0.09-2.51,0.34-2.9,1.85c-3.48-1.68-3.38-2.21,1.07-5.52C38.55,141.5,39.23,141.48,39.92,141.46z"/>
		<path class="st43" d="M74.21,96.32c-0.4,0.8-0.79,1.6-1.19,2.4c-0.27,0.71-0.62,1.34-1.5,1.43c-1.41-0.15-2.07-1.26-2.86-2.22
			c-0.27-0.42-0.45-0.88-0.55-1.37c0.01-0.51,0.19-0.95,0.56-1.3c1.93-1.81,3.77-1.23,5.57,0.21c0.4,0.21,0.53,0.41,0.39,0.59
			C74.5,96.23,74.36,96.32,74.21,96.32z"/>
		<path class="st44" d="M58.6,112.99c0.79,0.36,1.58,0.72,2.37,1.09c0.61-0.44,1.13-0.35,1.56,0.27c0.66,1.81-0.12,3.09-1.54,4.14
			c-3.18,1.48-6.32,1.73-9.38-0.31c-0.19-0.27-0.38-0.54-0.57-0.81c0.15-0.19,0.19-0.4,0.11-0.63c1.79-2.8,5.91,0.96,7.43-2.62
			C58.58,113.75,58.59,113.37,58.6,112.99z"/>
		<path class="st45" d="M105.11,154.78c0.39,0.75,0.78,1.5,1.17,2.25c-2.93,2.45-5.84,2.28-8.72-0.09c0.42-0.73,0.83-1.46,1.25-2.18
			C100.92,152.83,103.02,153,105.11,154.78z"/>
		<path class="st46" d="M107.32,159.35c0.91,4.11-2.31,2.9-4.28,3.3c-1.19-0.12-2.24-0.43-2.65-1.73c-0.02-0.6,0.15-1.14,0.51-1.62
			C103.05,157.71,105.19,157.68,107.32,159.35z"/>
		<path class="st47" d="M52.33,139.56c-0.06,5.44-0.13,10.89-0.19,16.33c-2.25-5.49-0.67-11.2-0.99-16.8
			C51.65,138.98,52.04,139.14,52.33,139.56z"/>
		<path class="st48" d="M52.33,139.56c-0.39-0.16-0.79-0.31-1.18-0.47c-0.08-1.71-0.15-3.43-0.23-5.14
			c0.45-0.32,0.95-0.42,1.49-0.27c2.29,4.47,7.04,2.09,10.36,3.69c0.42,0.36,0.69,0.81,0.82,1.34c-0.07,0.57-0.36,0.97-0.89,1.21
			c-0.56,0.09-1.06-0.04-1.51-0.37c-0.46,0-0.92,0.01-1.38,0.01c-0.33,0.52-0.69,0.54-1.07,0.05c-0.43,0-0.87-0.01-1.31-0.01
			c0,0-0.35-0.06-0.35-0.06s-0.35,0.04-0.35,0.04c-0.42-0.02-0.84-0.04-1.26-0.06c-0.33,0.58-0.68,0.57-1.05,0.04
			c-0.46-0.01-0.93-0.02-1.39-0.03c0,0-0.36-0.03-0.36-0.03L52.33,139.56z"/>
		<path class="st49" d="M52.13,133.94c-0.4,0-0.81,0.01-1.21,0.01c-1.17-0.12-2.42-0.02-3.26-1.12c-0.81-1.08-0.87-2.14,0.06-3.18
			c0.38-0.12,0.77-0.24,1.15-0.36c0.87-0.37,1.75-0.66,2.67-0.16C53.23,130.56,53.75,132.12,52.13,133.94z"/>
		<path class="st50" d="M57.6,109.05c-0.43,0.61-0.87,1.22-1.3,1.83c-2.08-1.41-5.18-2.03-4.38-5.66
			C53.82,106.49,55.71,107.77,57.6,109.05z"/>
		<path class="st51" d="M93.13,134.09c-0.33-0.09-0.67-0.14-1.01-0.14c-1.59-1.13-1.55-2.55-0.77-4.12
			c0.45-0.55,0.99-0.68,1.64-0.37c1.18,0.37,2.69-0.42,3.55,1.04c0.67,1.63-0.31,2.48-1.54,3.2
			C94.37,133.83,93.75,133.96,93.13,134.09z"/>
		<path class="st52" d="M38.21,114.14c4.65-3.15,4.85-3.12,6.49,1.11c-1.73,1.31-3.54,1.86-5.56,0.63
			C38.65,115.39,38.34,114.81,38.21,114.14z"/>
		<path class="st14" d="M51.09,129.58c-0.74-0.09-1.47-0.19-2.21-0.28c2.39-3.67-0.37-8.27,2.16-11.91c0,0,0.46-0.13,0.46-0.13
			C54,121.44,54.61,125.58,51.09,129.58z"/>
		<path class="st53" d="M38.21,114.14c0.11,0.3,0.25,0.59,0.42,0.86c1.45,1.95,4.22,0.62,5.77,2.31c0.71,0.4,1.42,0.79,2.13,1.19
			c-3.24,2.1-6.49,2.07-9.75,0.03C37.26,117.07,37.73,115.6,38.21,114.14z"/>
		<path class="st54" d="M37.78,158.14c2.25-2.26,5.71-0.03,7.99-2.15c0.87,0.98,0.84,2.17,0.78,3.37c-1.09-0.07-2.19-0.15-3.28-0.22
			C41.58,158.06,39.29,160.21,37.78,158.14z"/>
		<path class="st55" d="M99.68,121.72c1.84,0.16,3.67,0.33,5.51,0.49c0.3,0.27,0.37,0.49,0.2,0.64c-0.13,0.12-0.27,0.19-0.42,0.19
			c-0.46,1.27-0.92,2.53-1.73,4.77c0-3.82-1.29-5.47-4.43-4.87c-0.1-0.33-0.11-0.66-0.03-1C98.93,121.3,99.23,121.22,99.68,121.72z"
			/>
		<path class="st54" d="M97.57,156.93c2.91,0.03,5.81,0.06,8.72,0.09c0.31,0.4,0.63,0.81,0.94,1.22c-2.32,1.06-5.14-0.16-7.3,1.62
			c-0.87,0.27-1.68,0.2-2.37-0.45C97.56,158.59,97.57,157.76,97.57,156.93z"/>
		<path class="st56" d="M47.73,129.65c-0.02,1.06-0.04,2.12-0.06,3.18c-1.07,0.19-2.13,0.37-3.2,0.56c0,0-0.16-0.32-0.16-0.32
			c-0.9-1.07-2.31-1.99-1.03-3.66c0.48-0.41,1.02-0.5,1.61-0.28C45.83,129.3,46.78,129.48,47.73,129.65z"/>
		<path class="st57" d="M92.99,129.45c-0.27,0.15-0.56,0.24-0.87,0.28c-3.56-4.08-2.41-8.25-0.24-12.44c0,0,0.06-0.05,0.06-0.05
			C94.09,121.15,92.6,125.39,92.99,129.45z"/>
		<path class="st58" d="M68.68,95.26c0.05,0.33,0.08,0.67,0.1,1c-1.8,2.74-4.3,2.83-7.07,1.87c-0.23-0.18-0.47-0.36-0.7-0.55
			C62.8,94.27,65.54,94.1,68.68,95.26z"/>
		<path class="st59" d="M38.25,122.86c-0.19-1.1-0.38-2.19-0.57-3.29c0.44-0.36,0.93-0.46,1.48-0.3c1.98,0.75,4.41-0.44,6.14,1.39
			c-0.19,0.74-0.37,1.49-0.56,2.23c-0.24,0.03-0.49,0.07-0.73,0.11c-1.43,0.52-2.93,0.41-4.41,0.42
			C39.1,123.35,38.65,123.17,38.25,122.86z"/>
		<path class="st60" d="M104.97,123.04c0.11-0.27,0.18-0.55,0.21-0.83c0.32-0.24,0.64-0.49,0.97-0.74c0.06,3.33,0.13,6.66,0.19,10
			c-0.72-0.41-1.43-0.82-2.15-1.22C105.85,127.99,105.11,125.48,104.97,123.04z"/>
		<path class="st61" d="M44.4,117.32c-2.04-0.49-5.18,1.78-5.77-2.31c2.02,0.08,4.04,0.16,6.06,0.25
			C44.6,115.94,44.5,116.63,44.4,117.32z"/>
		<path class="st62" d="M98.63,142.87c0.48,0.25,0.97,0.49,1.45,0.74c1.65,3.13,1.75,6.33,0.5,9.61c-0.45,0.55-1.03,0.82-1.74,0.84
			C98.76,150.34,98.7,146.61,98.63,142.87z"/>
		<path class="st63" d="M90.2,108.52c-1.22-0.12-2.7,0.68-3.49-0.98c0.68-2.04,2.31-2.82,4.25-3.18c0.85,0.02,1.54,0.32,2,1.07
			C92.86,107.19,91.31,107.67,90.2,108.52z"/>
		<path class="st64" d="M38.25,122.86l0.1,0.05c0.54-0.11,0.99,0.03,1.38,0.42c1.2,1.8,0.64,4.03,1.45,5.93
			c0.07,0.8-0.1,1.54-0.52,2.23c-0.35,0.39-0.8,0.61-1.32,0.67c-0.83-0.24-1.12-0.94-1.42-1.64
			C38.02,127.97,38.14,125.42,38.25,122.86z"/>
		<path class="st65" d="M92.95,105.44c-0.65,0.02-1.31,0.04-1.96,0.06c-0.76-0.63-0.86-1.39-0.45-2.26
			c0.11-1.18,0.22-2.35,0.33-3.53C93.47,100.93,93,103.26,92.95,105.44z"/>
		<path class="st66" d="M38.95,119.63c-0.42-0.02-0.85-0.03-1.27-0.05c-0.3-0.35-0.6-0.7-0.9-1.05c3.25-0.01,6.5-0.02,9.75-0.03
			c-0.35,0.36-0.7,0.71-1.05,1.07C43.31,120.47,41.13,120.39,38.95,119.63z"/>
		<path class="st67" d="M37.78,158.14c1.86,0.16,3.86-0.41,5.49,1c-1.81,0.49-3.62,0.98-5.43,1.47c-0.34-0.45-0.68-0.9-1.03-1.35
			C37.13,158.88,37.46,158.51,37.78,158.14z"/>
		<path class="st68" d="M58.58,114.13c0.81,1.66,0.1,2.26-1.56,2.31c-1.96,0.06-3.92,0.2-5.87,0.31
			C52.95,113.98,56.44,115.97,58.58,114.13z"/>
		<path class="st69" d="M69.81,164.67c0.02-0.37,0.04-0.74,0.06-1.11c0.38-0.33,0.77-0.65,1.18-0.94c0.7-0.38,1.44-0.44,2.2-0.31
			c0.74,0.19,1.5,0.25,2.26,0.28c0.51,0.02,1.01,0.09,1.51,0.2c0.47,0.23,0.8,0.6,1.02,1.07C75.34,164.56,72.79,166.79,69.81,164.67
			z"/>
		<path class="st70" d="M61.02,98.74c-2.69-0.04-5.37-0.09-8.06-0.13c2.43-2.25,5.38-0.52,8.04-1.04c0,0-0.06-0.04-0.06-0.04
			c0.3,0.25,0.42,0.51,0.34,0.79C61.2,98.6,61.11,98.74,61.02,98.74z"/>
		<path class="st71" d="M78.04,163.86c-0.49-0.06-0.98-0.12-1.46-0.18c-0.76-0.73-0.77-1.43,0.06-2.1c1.92,0.43,3.84,0.86,5.76,1.3
			C81.14,164.03,79.53,163.7,78.04,163.86z"/>
		<path class="st72" d="M95,133.7c0.51-1.07,1.03-2.14,1.54-3.2c0.31-0.01,0.61,0.01,0.92,0.05c2.01-0.01,1.73,1.15,1.24,2.42
			c-0.02,0.36-0.13,0.69-0.33,0.99C97.24,133.87,96.12,133.79,95,133.7z"/>
		<path class="st73" d="M99.69,159.12c2.36-1.56,5-0.81,7.54-0.88c0.03,0.37,0.06,0.74,0.09,1.11c-2.22-0.09-4.47-0.41-6.51,0.88
			C100.12,160.17,99.73,159.82,99.69,159.12z"/>
		<path class="st74" d="M74.21,96.32c0.02-0.29,0.03-0.57,0.04-0.86c1.06-0.38,2.12-0.75,3.18-1.13c0.38,0.5,0.77,1.01,1.15,1.51
			C77.22,96.84,75.66,96.02,74.21,96.32z"/>
		<path class="st75" d="M99.68,121.72c-0.28,0.14-0.58,0.21-0.9,0.23c-0.16-0.78-0.32-1.55-0.48-2.33c1.76,0,3.52,0,6.49,0
			C102.34,120.63,101.01,121.18,99.68,121.72z"/>
		<path class="st76" d="M105.35,145.98c-0.11,2.57-0.23,5.13-0.34,7.7c-0.67,0.34-1.24,0.21-1.71-0.38c-0.81-2.77-2.28-5.7,1.8-7.26
			L105.35,145.98z"/>
		<path class="st77" d="M45.55,164.08c2.99,0.15,2.16-1.93,2.09-3.57c2.26,0.64,1.14,2.21,0.68,3.25
			C47.76,165,46.57,164.73,45.55,164.08z"/>
		<path class="st78" d="M98.7,132.96c-0.11-0.96-0.19-1.94-1.24-2.42c0.36-0.42,0.73-0.85,1.09-1.27c0.74,0.17,1.49,0.34,2.23,0.51
			c0.86,0.89,0.89,1.78,0,2.67C100.08,132.63,99.39,132.8,98.7,132.96z"/>
		<path class="st79" d="M38.95,119.63c2.18-0.02,4.36-0.03,6.53-0.05c-0.06,0.36-0.12,0.73-0.18,1.09
			C43.16,120.46,40.85,121.31,38.95,119.63z"/>
		<path class="st80" d="M104.11,153.68c0.3,0.05,0.6,0.05,0.9,0c0.03,0.37,0.07,0.73,0.1,1.1c-2.1-0.01-4.2-0.02-6.3-0.03
			c-0.06-0.23-0.06-0.46,0.01-0.68c0.28-0.03,0.53-0.13,0.77-0.28c0.86-0.85,1.83-1.33,3.07-1.01
			C103.19,153.01,103.67,153.31,104.11,153.68z"/>
		<path class="st81" d="M71.63,88.77c0.6,0.78,1.15,1.2,1.08,1.47c-0.16,0.62-0.5,1.39-1,1.66c-0.62,0.33-0.77-0.47-0.73-0.9
			C71.04,90.39,71.31,89.81,71.63,88.77z"/>
		<path class="st82" d="M44.88,129.13c-0.53,0.19-1.06,0.37-1.58,0.56c-0.24-0.19-0.49-0.37-0.73-0.56
			c-1.15-2.04-1.19-4.06,0.12-6.06c0.48-0.48,1.04-0.58,1.66-0.3c0,0,0.41,0.13,0.41,0.13C44.79,124.97,44.83,127.05,44.88,129.13z"
			/>
		<path class="st83" d="M100.78,161.52c0.75,0.38,1.5,0.75,2.25,1.13c-0.47,1.1-1.39,0.94-2.3,0.8c-0.32-0.25-0.51-0.58-0.57-0.99
			c0.05-0.19,0.1-0.38,0.15-0.58C100.47,161.76,100.63,161.64,100.78,161.52z"/>
		<path class="st84" d="M99.69,159.12c0.37,0.37,0.74,0.74,1.12,1.11c-0.01,0.43-0.02,0.86-0.02,1.29c0,0-0.28,0.02-0.28,0.02
			c-0.19,0.12-0.37,0.24-0.56,0.36c-0.22-0.05-0.43-0.1-0.65-0.15c-0.42-0.14-0.84-0.29-1.26-0.45c-0.17-0.14-0.35-0.28-0.52-0.42
			c-0.1-0.2-0.2-0.4-0.29-0.6c0.18-0.27,0.29-0.56,0.33-0.88C98.27,159.32,98.98,159.22,99.69,159.12z"/>
		<path class="st85" d="M99.69,162.71c-0.65-0.98-4.88,1.68-2.46-2.41c0.19,0.03,0.37,0.1,0.53,0.21c0.21,0.32,0.51,0.47,0.89,0.44
			c0.37,0.02,0.67,0.17,0.9,0.46l0.19,0.39c0.13,0.16,0.26,0.32,0.39,0.48C99.99,162.42,99.84,162.56,99.69,162.71z"/>
		<path class="st86" d="M52.18,99.53c-0.01,1.18-0.01,2.37-0.02,3.55C50.54,101.89,50.74,100.7,52.18,99.53z"/>
		<path class="st87" d="M37.91,130.52c0.32,0.38,0.65,0.76,0.97,1.14c0.77,0.35,0.77,0.69-0.01,1.02c-0.37,0.11-0.73,0.22-1.1,0.34
			c0,0-0.06-0.19-0.06-0.19c-0.27-0.25-0.37-0.51-0.31-0.78c0.07-0.28,0.14-0.42,0.23-0.42C37.73,131.25,37.82,130.88,37.91,130.52z
			"/>
		<path class="st57" d="M37.64,131.61c0.03,0.4,0.05,0.8,0.08,1.2c-0.36-0.32-0.73-0.65-1.09-0.97
			C36.96,131.75,37.3,131.67,37.64,131.61z"/>
		<path class="st88" d="M100.78,162.66c-0.07,0.26-0.08,0.53-0.04,0.8c-0.76,0.33-0.97-0.11-1.05-0.74c0,0,0.29,0.02,0.29,0.02
			C100.19,162.13,100.46,162.07,100.78,162.66z"/>
		<path class="st89" d="M91.82,139.33c0,0.4,0.01,0.81,0.01,1.21c-1.56,0.05-3.11,0.09-4.67,0.14c-1.3,1.66-3.23,1.94-5.11,2.33
			c-1.89-0.41-4.11,0.09-5.48-1.86c-0.77-2.15-0.91-4.12,1.48-5.41c0.92-0.15,1.75,0.21,2.6,0.46
			C83.88,138.97,88.64,136.36,91.82,139.33z"/>
		<path class="st90" d="M75.39,149.11c-0.33-0.69-0.66-1.37-0.99-2.06c-0.78-0.97-0.54-1.93,0.01-2.89
			c0.51-0.65,1.16-1.07,1.97-1.24c0.26-0.02,0.53-0.02,0.79-0.04c0.26,0.05,0.51,0.11,0.77,0.15c1.44,0.64,2.43,1.89,3.71,2.77
			c0.38,0.37,0.65,0.8,0.84,1.29c0.06,0.53-0.02,1.04-0.25,1.52c-0.34,0.41-0.74,0.73-1.21,0.97c-1.51,0.24-2.96,1.02-4.57,0.6
			C75.96,149.95,75.6,149.6,75.39,149.11z"/>
		<path class="st91" d="M88.11,145.67c1.96,1.63,1.66,3.77,1.37,5.91c-0.38,0.34-0.81,0.58-1.31,0.72
			c-1.02,0.02-2.03,0.27-3.07,0.17c-1.09-0.22-1.94-0.78-2.51-1.75c-0.21-0.48-0.29-0.98-0.26-1.5c0.17-0.47,0.4-0.91,0.67-1.33
			C84.28,146.19,86.86,147.45,88.11,145.67z"/>
		<path class="st92" d="M71.85,154.82c0.05,0.69,0.09,1.37,0.14,2.06c-0.01,0.28-0.03,0.55-0.04,0.83
			c-0.09,0.57-0.34,1.06-0.75,1.48c-0.51,0.36-1.05,0.43-1.64,0.22c-0.48-0.38-0.84-0.85-1.07-1.41c-0.21-3.94-1.14-7.91,0.72-11.72
			c0.96-0.81,1.65-0.42,2.2,0.51C71.74,149.46,71.05,152.18,71.85,154.82z"/>
		<path class="st93" d="M71.1,147.18c-0.25-0.33-0.51-0.66-0.76-0.99c-0.45,0.22-0.91,0.39-1.4,0.51c-0.79-0.05-1.46-0.38-2.04-0.9
			c-0.55-0.57-0.89-1.24-0.99-2.03c0.03-0.52,0.2-0.99,0.52-1.4c0.42-0.3,0.88-0.48,1.39-0.57c1.59-0.16,2.76,1.01,4.21,1.3
			c1.19,0.23,2.49,0.22,3.3,1.36c-0.31,0.86-0.62,1.73-0.93,2.59c-0.85,0.04-1.71,0.09-2.56,0.14
			C71.59,147.19,71.35,147.18,71.1,147.18z"/>
		<path class="st94" d="M88.11,145.67c0.67,5.57-3.56,1.49-5.15,2.6c-0.11-0.22-0.22-0.45-0.32-0.67c0.01-0.25,0.03-0.5,0.04-0.75
			c0.07-0.24,0.14-0.48,0.21-0.72c0.85-1.29,1.96-2.26,3.42-2.8c0.53-0.01,0.94,0.19,1.24,0.63
			C87.73,144.53,87.92,145.1,88.11,145.67z"/>
		<path class="st95" d="M87.55,143.96c-0.38-0.03-0.76-0.06-1.15-0.1c-1.18,1.11-2.44,0.96-3.75,0.24c-0.45-0.32-0.81-0.72-1.07-1.2
			c-0.13-0.56,0.01-1.04,0.41-1.45c1.59-1.12,3.43-0.61,5.16-0.77C87.29,141.78,87.42,142.87,87.55,143.96z"/>
		<path class="st96" d="M75.35,155.97c-2.01-2.3-2.66-4.59,0.04-6.86c0,0-0.09,0.48-0.09,0.48c0.41,0.31,0.81,0.62,1.22,0.93
			c1.32,1.24,1.49,2.69,0.78,4.3C76.83,155.52,76.21,155.94,75.35,155.97z"/>
		<path class="st97" d="M75.35,155.97c0.37-0.37,0.74-0.74,1.1-1.11c0.36-0.38,0.8-0.54,1.32-0.45c1.53,0.62,2.45,1.71,2.66,3.37
			c-0.04,0.52-0.27,0.94-0.66,1.28C77.27,159.5,76.51,157.45,75.35,155.97z"/>
		<path class="st98" d="M71.1,147.18c0.25-0.02,0.49-0.02,0.74,0.01c0,2.54,0.01,5.09,0.01,7.63
			C70.37,152.39,71.37,149.72,71.1,147.18z"/>
		<path class="st99" d="M88.37,155.95c-0.84,1.78-1.8,3.43-4.19,3.19c-0.39-0.37-0.59-0.83-0.61-1.36c0.42-1.84,1.69-2.55,3.46-2.59
			C87.55,155.32,88,155.57,88.37,155.95z"/>
		<path class="st100" d="M88.37,155.95l-0.46,0l-0.46,0.01c-0.46-0.35-0.79-0.8-1-1.34c-0.22-1.51-0.13-2.86,1.78-3.2
			c0.41,0.05,0.83,0.11,1.24,0.16C90.1,153.29,88.53,154.44,88.37,155.95z"/>
		<path class="st101" d="M84.18,158.04c0,0.37,0.01,0.73,0.01,1.1c-1.49,1.16-2.97,1.24-4.41-0.09c-0.01-0.26-0.01-0.53-0.02-0.79
			c0.77-0.99,1.78-1.4,3.02-1.18C83.34,157.26,83.81,157.58,84.18,158.04z"/>
		<path class="st102" d="M76.64,161.57c-0.02,0.7-0.04,1.4-0.07,2.1c-0.46-0.04-0.91-0.08-1.37-0.12c-0.51-0.48-1.24-0.41-1.83-0.69
			c-0.32-0.35-0.42-0.75-0.31-1.2c0.3-0.38,0.69-0.49,1.15-0.39C75.02,161.38,75.83,161.48,76.64,161.57z"/>
		<path class="st103" d="M74.22,161.28c-0.34,0.14-0.68,0.29-1.02,0.43c-0.17-0.17-0.33-0.34-0.5-0.51
			c-0.15-0.46-0.15-0.93-0.02-1.4c0.16-0.18,0.32-0.35,0.48-0.53C74.25,159.55,74.2,160.44,74.22,161.28z"/>
		<path class="st104" d="M70.52,159.1c0.14-0.44,0.27-0.88,0.41-1.32c0.36-0.07,0.72-0.12,1.08-0.14c0.4-0.03,0.72,0.11,0.98,0.41
			c0.05,0.41,0.11,0.81,0.16,1.22c0,0,0.01,0.04,0.01,0.04c-0.3,0.32-0.67,0.54-1.08,0.68c-0.44,0.01-0.85-0.09-1.24-0.31
			C70.74,159.48,70.63,159.29,70.52,159.1z"/>
		<path class="st105" d="M73,158.05l-0.5,0.04l-0.49-0.1c-0.02-0.24-0.03-0.49-0.05-0.73c0,0,0.03-0.38,0.03-0.38
			C72.33,157.27,72.66,157.66,73,158.05z"/>
		<path class="st78" d="M100.78,132.46c0-0.89,0-1.78,0-2.67c1.26-0.57,2.14,0.23,3.08,0.85c-0.36,0.81-0.71,1.62-1.06,2.43
			C102.12,132.87,101.45,132.66,100.78,132.46z"/>
		<path class="st106" d="M103.05,153.81c-1.15-0.01-2.3-0.01-3.46-0.02c0.16-3.39,0.31-6.78,0.48-10.17
			c0.94,0.45,1.89,0.9,2.83,1.34C104,147.89,103.75,150.84,103.05,153.81z"/>
		<path class="st107" d="M103.05,153.81c-0.05-2.95-0.1-5.9-0.15-8.85c0.85,0.12,1.93-0.22,2.2,1.08c-1.74,2.37-0.77,5.08-0.99,7.64
			c0,0-0.51,0.17-0.51,0.17L103.05,153.81z"/>
		<path class="st108" d="M39.94,131.61c0.01-0.62,0.01-1.25,0.02-1.87c0.13-0.47,0.42-0.81,0.84-1.04c0.45-0.14,0.91-0.17,1.37-0.1
			c0.43,0.19,0.83,0.42,1.21,0.69c0,0-0.09,0.4-0.09,0.4c0.34,1.13,0.67,2.26,1.01,3.38c-1.46,0.08-3.03,1.26-4.33-0.41
			c-0.35-0.22-0.47-0.45-0.36-0.69C39.72,131.73,39.83,131.61,39.94,131.61z"/>
		<path class="st109" d="M39.94,131.61c0.04,0.35,0.05,0.7,0.04,1.05c-0.37,0-0.73,0.01-1.1,0.01c-0.02-0.34-0.02-0.68,0.01-1.02
			C39.24,131.68,39.59,131.67,39.94,131.61z"/>
		<path class="st110" d="M61.91,109.84c-1.07-0.46-2.14-0.93-3.21-1.39c0.8-1.42,1.48-2.94,3.15-3.6c0.48-0.26,0.97-0.3,1.49-0.15
			c1.02,0.55,1.52,1.42,1.6,2.56c-0.05,0.82-0.35,1.54-0.88,2.17C63.42,109.95,62.74,110.27,61.91,109.84z"/>
		<path class="st111" d="M63.21,105.07c-0.45-0.07-0.91-0.14-1.36-0.21c-0.31-0.96-0.61-1.92-0.92-2.87
			c0.09-0.34,0.13-0.68,0.11-1.03c0.94-1.01,2.02-1.11,3.2-0.47C65.52,102.37,64.91,103.84,63.21,105.07z"/>
		<path class="st112" d="M73.5,99.75c3.04-0.31,5.6,1.64,8.54,1.83c0,0-0.07,0.51-0.07,0.51c0.65,0.61,0.75,1.34,0.51,2.16
			c-1.13,1.6-3.1,1.98-4.54,3.14c-0.77,0.34-1.58,0.44-2.42,0.35c-0.56-0.07-1.08-0.25-1.58-0.51c-0.73-0.44-1.3-1.03-1.7-1.78
			c-0.35-0.75-0.5-1.54-0.47-2.36C71.93,101.76,72.31,100.54,73.5,99.75z"/>
		<path class="st113" d="M73.5,99.75c-0.17,1.15-0.35,2.3-0.52,3.44c-0.59,0.77-0.15,1.99-1.14,2.59c-0.48,0.19-0.97,0.25-1.48,0.19
			c-0.5-0.17-0.91-0.47-1.23-0.88c-0.54-0.98-0.57-1.98-0.19-3.02c0.56-1.36,1.96-1.57,3.05-2.22c0.35-0.38,0.7-0.76,1.05-1.14
			C73.18,99.06,73.34,99.4,73.5,99.75z"/>
		<path class="st114" d="M51.09,129.58c0.14-4.11,0.27-8.22,0.41-12.33c3.31-0.15,6.62-0.31,9.94-0.46
			c1.25-0.34,2.38-1.09,3.73-1.07c1.35-0.01,2.55-0.92,3.95-0.67c0.85,0.2,1.53,0.61,1.88,1.46l-0.04,0.51
			c2.87,4.37,1.42,9.16,1.35,13.81c-0.97,2.39-2.92,3.33-5.33,3.56c-0.59-0.17-1.08-0.52-1.44-1.02c-0.9-1.49-0.49-3.23-0.91-4.81
			c-0.29-1.54-0.98-2.66-2.77-2.61c-1.76-0.09-2.41,0.9-2.45,2.49c-0.05,0.69-0.07,1.38-0.09,2.07c0.43,1.45-1.4,2.96,0.11,4.38
			c1.48,0.86,3.17,0.5,4.72,0.84c2.15,0.46,3.82,1.35,2.24,3.98c-0.49,0.27-1,0.38-1.55,0.34c-0.9-0.23-1.23-1.01-1.65-1.7
			c-2.19,0-4.38-0.12-6.56,0.03c-3.27,0.22-4.81-1.11-4.48-4.42C51.79,132.48,51.44,131.03,51.09,129.58z"/>
		<path class="st115" d="M78.81,138.32c-0.14-0.74-0.27-1.48-0.41-2.22c-0.15-0.47-0.08-0.91,0.19-1.33
			c0.44-0.56,0.9-1.11,1.53-1.46c0.59-0.41,1.24-0.62,1.96-0.62c0.44,0,0.88,0.07,1.3,0.15c0.91,0.1,1.38-0.35,1.49-1.24
			c0.07-0.44,0.19-0.85,0.34-1.26c0.7-1.17,0.86-2.43,0.7-3.76c-0.21-1.39,0.69-3.08-1.12-4.01c-1.6-0.24-2.95,0.55-4.36,1.01
			c-0.37,0.14-0.77,0.21-1.15,0.23c-0.33,0.02-0.65-0.08-0.89-0.28c0.03,0.01-0.04-0.34-0.04-0.34s-0.25,0.26-0.22,0.28
			c-0.02,0.26-0.06,0.51-0.06,0.77c0.02,0.26,0.04,0.52,0.1,0.77c0.11,0.24,0.25,0.45,0.48,0.61c0.29,0.09,0.56,0.2,0.84,0.32
			c0.35,0.08,0.66,0.22,0.96,0.39c0.54,0.29,0.94,0.7,1.23,1.23c0.27,0.62,0.35,1.26,0.3,1.92c-0.24,1.12-0.61,2.19-1.25,3.15
			c-0.34,0.31-0.71,0.59-1.09,0.85c-0.34,0.33-0.66,0.66-0.99,1.01c-0.53,0.51-1.06,1.01-1.84,1.12c-1.73-0.06-2.85-1.22-4.07-2.22
			c-0.97-0.8-1.33-1.85-1.27-3.08c0.29-4.33-0.61-8.7,0.5-12.99c6.63-0.02,13.25-0.03,19.88-0.05c0.08,4.15,0.16,8.29,0.24,12.44
			c0,1.4,0,2.81,0,4.21c-0.13,1.46-0.26,2.91-0.38,4.37C87.43,139.23,83.12,139.21,78.81,138.32z"/>
		<path class="st116" d="M82.15,110.72c0.31-0.01,0.62,0.02,0.92,0.1c-0.79,1.47-1.58,2.93-2.36,4.4c-2.17,0.01-4.35,0.12-6.49-0.4
			c-1.07-0.6-1.57-1.57-1.82-2.72c-0.09-1.21,0.35-2.2,1.22-3.02c0.43-0.34,0.91-0.59,1.43-0.77c1.6-0.39,3.11-0.11,4.5,0.75
			c0.5,0.08,0.96,0.27,1.37,0.57l0-0.04C81.24,110.06,81.67,110.42,82.15,110.72z"/>
		<path class="st117" d="M74.25,113.77c2.15,0.48,4.53-0.04,6.46,1.45c-3.03,2.03-6.53,0.51-9.72,1.28c-0.77-0.1-1.53-0.21-2.3-0.31
			c-0.36-1.86,0.85-2.6,2.28-3.2C72.18,112.71,73.24,113.15,74.25,113.77z"/>
		<path class="st118" d="M72,117.34c0.06,4.77,0.12,9.54,0.17,14.31c-0.41,0.31-0.83,0.33-1.26,0.04c0.01-4.89,0.02-9.77,0.03-14.66
			C71.29,117.12,71.64,117.23,72,117.34z"/>
		<path class="st119" d="M81.94,104.25c0.01-0.72,0.02-1.44,0.02-2.17c3.03-0.91,5.79,0.24,8.57,1.16c0.15,0.75,0.3,1.5,0.45,2.25
			c-0.99,1.6-2.48,2.16-4.28,2.05c-1.66,0.12-3.12-0.39-4.44-1.36C81.44,105.66,81.33,105.01,81.94,104.25z"/>
		<path class="st106" d="M42.09,153.85c-0.69-0.04-1.38-0.07-2.06-0.11c-0.99-2.61-0.75-5.25-0.14-7.89c0-0.24-0.06-0.46-0.18-0.66
			c0,0,0.36-0.17,0.36-0.17C45.86,146.79,43.03,150.54,42.09,153.85z"/>
		<path class="st120" d="M42.09,153.85c-0.22-3.05,1.42-6.52-2.03-8.84c0.35-0.44,0.69-0.87,1.04-1.31
			c0.74-0.24,1.47-0.47,2.21-0.71c0.89,3.62,0.95,7.24-0.03,10.86C42.88,153.86,42.48,153.85,42.09,153.85z"/>
		<path class="st121" d="M43.28,153.86c0.01-3.62,0.02-7.24,0.03-10.86c0.42-0.01,0.84-0.01,1.25-0.02
			C44,146.59,45.96,150.49,43.28,153.86z"/>
		<path class="st122" d="M39.88,145.85c0.05,2.63,0.09,5.26,0.14,7.89C37.65,151.16,37.94,148.52,39.88,145.85z"/>
		<path class="st123" d="M64.27,101.03c-1.08-0.03-2.15-0.06-3.23-0.09c-0.01-0.73-0.01-1.47-0.02-2.2
			c-0.03-0.4-0.05-0.81-0.08-1.21c2.61-0.42,5.23-0.85,7.84-1.28c0.3,0.08,0.6,0.14,0.91,0.17c1.13,1.94,1.37,3.75-0.74,5.22
			C67.24,102.53,65.66,102.48,64.27,101.03z"/>
		<path class="st124" d="M79.78,109.66c-1.44-0.02-2.89-0.04-4.33-0.07c-0.36-0.24-0.65-0.55-0.89-0.91
			c-0.12-0.42-0.14-0.84-0.06-1.26c0.18-0.39,0.44-0.73,0.77-1.01c0.74-0.03,1.48-0.07,2.22-0.1c0.95,0.08,1.88,0.2,2.18,1.33
			c0.03,0.32,0.07,0.63,0.12,0.95c0.33,0.24,0.43,0.48,0.32,0.72C80,109.54,79.89,109.66,79.78,109.66z"/>
		<path class="st125" d="M79.66,107.64c-0.73-0.44-1.46-0.89-2.18-1.33c1.25-1.2,2.64-2.1,4.46-2.06c0.11,0.64,0.21,1.29,0.32,1.93
			C81.4,106.67,80.53,107.15,79.66,107.64z"/>
		<path class="st126" d="M82.15,110.72c-0.41-0.38-0.83-0.76-1.24-1.13C81.33,109.97,81.74,110.34,82.15,110.72z"/>
		<path class="st127" d="M79.78,109.66c-0.1-0.36-0.1-0.72,0.01-1.07c0.38,0.35,0.75,0.7,1.13,1.04
			C80.53,109.64,80.15,109.65,79.78,109.66z"/>
		<path class="st128" d="M61.2,139.55c0.22-0.05,0.44-0.04,0.66,0.03c3.64,4.96,1.31,10.62,1.82,15.94c0.24,2.47,0.5,5.22-2.01,7.04
			c0,0-0.43,0.22-0.43,0.22C61.23,155.04,61.22,147.3,61.2,139.55z"/>
		<path class="st129" d="M58.75,139.61c0.35-0.06,0.71-0.08,1.07-0.05c-0.47,7.25,1.31,14.6-0.98,21.76
			C58.81,154.08,58.78,146.85,58.75,139.61z"/>
		<path class="st129" d="M54.43,139.56c0.35-0.04,0.7-0.06,1.05-0.04c-0.65,6.51,1.33,13.17-1.1,19.58
			C54.4,152.58,54.41,146.07,54.43,139.56z"/>
		<path class="st130" d="M78.81,138.32c4.31,0,8.62-0.01,12.93-0.01c0.12,0.33,0.15,0.67,0.08,1.02
			C87.5,138.74,83,140.54,78.81,138.32z"/>
		<path class="st131" d="M62.12,114.1c-0.38-0.01-0.77-0.01-1.15-0.02c0.75-1.03,1.5-2.06,2.26-3.09c0.31-0.43,0.72-0.69,1.24-0.79
			c1.07,0.01,2.1,0.14,3.01,0.78c0.44,0.37,0.73,0.83,0.89,1.38c0.13,0.9-0.07,1.69-0.7,2.37c-0.98,0.8-2.11,0.93-3.32,0.74
			C63.47,115.22,62.77,114.7,62.12,114.1z"/>
		<path class="st132" d="M64.22,110.8c-0.33,0.05-0.67,0.12-1,0.19c-0.44-0.38-0.87-0.76-1.31-1.14c0.42-0.38,0.84-0.75,1.26-1.13
			c0.29-0.43,0.66-0.53,1.12-0.27c0.33,0.34,0.52,0.74,0.59,1.21c-0.05,0.22-0.11,0.45-0.16,0.67
			C64.56,110.48,64.39,110.64,64.22,110.8z"/>
		<path class="st133" d="M63.17,138.33c0.38,0.35,0.75,0.71,1.13,1.06c2.22,7.44,2.87,14.88,0.08,22.33
			c-0.35,0.17-0.71,0.33-1.06,0.5c-1.14-7.53-0.96-15.07-0.13-22.62C63.18,139.18,63.17,138.75,63.17,138.33z"/>
		<path class="st134" d="M64.38,161.72c-0.03-7.44-0.05-14.89-0.08-22.33c0.36,0.02,0.71,0.05,1.07,0.09
			c0.81,0.6,1.9,0.81,2.46,1.76c0.19,0.51,0.12,0.98-0.22,1.41c-0.41,0.15-0.82,0.31-1.24,0.46c0.37,6.09,2.17,12.23-0.77,18.18
			C65.2,161.43,64.79,161.57,64.38,161.72z"/>
		<path class="st135" d="M63.19,139.6c0.04,7.54,0.08,15.08,0.13,22.62c-0.55,0.11-1.09,0.23-1.64,0.34
			c0.81-7.65,0.5-15.32,0.18-22.98C62.3,139.59,62.74,139.59,63.19,139.6z"/>
		<path class="st136" d="M67.71,144.96c0.35,0.38,0.7,0.76,1.05,1.14c1.77,4.23-1.06,9.01,1.57,13.13c0,0,0.2-0.13,0.19-0.13
			s0.32,0.33,0.32,0.33c0.76,0.69,0.7,1.45,0.2,2.24c-0.55,0.34-1.05,0.29-1.51-0.16c-0.28-0.11-0.55-0.25-0.8-0.42
			c-2.01-0.59-2.33-2.23-2.17-3.91C66.95,153.11,65.37,148.85,67.71,144.96z"/>
		<path class="st128" d="M65.61,161.28c0.08-6.07-1.3-12.2,0.77-18.18c0,0.19,0.02,0.38,0.06,0.56c0.89,5.84,1.23,11.67-0.14,17.49
			l-0.33,0.15L65.61,161.28z"/>
		<path class="st137" d="M66.31,161.15c0.05-5.83,0.09-11.66,0.14-17.49c0.42,0.43,0.84,0.87,1.27,1.3
			c0.33,5.38-1.24,10.88,1.03,16.14C67.93,161.11,67.12,161.13,66.31,161.15z"/>
		<path class="st138" d="M69.54,161.51c0.41-0.1,0.82-0.21,1.23-0.31c0.38-0.21,0.78-0.35,1.21-0.43c0.43,0.09,0.81,0.28,1.13,0.58
			c0,0,0.09,0.36,0.09,0.36c0,0.27,0.01,0.54,0.02,0.81c-0.17,0.17-0.34,0.34-0.51,0.52c-0.48,0.06-0.96,0.09-1.44,0.08
			c-0.51,0.03-0.93-0.15-1.28-0.51C69.84,162.24,69.69,161.88,69.54,161.51z"/>
		<path class="st139" d="M69.98,162.61c0.34,0,0.67,0.06,0.99,0.18c-0.02,0.24-0.05,0.49-0.07,0.73l-0.52,0.11
			c0,0-0.52-0.07-0.52-0.07C69.84,163.23,69.88,162.92,69.98,162.61z"/>
		<path class="st140" d="M68.78,101.23c1.49-1.38,0.98-3.13,0.91-4.8c0.77,1.14,1.53,2.28,2.3,3.42c-0.16,1.33-0.99,1.96-2.24,2.16
			C69.18,102.04,68.85,101.8,68.78,101.23z"/>
		<path class="st141" d="M62.12,114.1c0.76,0.05,1.52,0.1,2.28,0.16c0.83,0.83,1.85,1.59,0.87,2.95c-1.28-0.14-2.56-0.27-3.84-0.41
			C61.66,115.89,61.89,114.99,62.12,114.1z"/>
		<path class="st142" d="M44.33,122.77c-0.33,0.08-0.66,0.16-0.99,0.23c-0.38,0.32-0.78,0.61-1.19,0.89
			c-0.73,0.27-1.46,0.26-2.18-0.04c-0.4-0.3-0.78-0.62-1.14-0.95l-0.24,0.18c0,0-0.25-0.16-0.25-0.16
			C40.31,121.31,42.3,121.32,44.33,122.77z"/>
		<path class="st143" d="M38.83,122.9c0.38,0.05,0.76,0.1,1.15,0.14c1.88,1.82,2.11,3.93,1.09,6.26c-0.37,0.15-0.74,0.29-1.11,0.44
			C37.39,127.82,38.61,125.28,38.83,122.9z"/>
		<path class="st144" d="M73.21,162.52c0.8,0.08,1.63,0.12,1.99,1.04c-0.7-0.07-1.4-0.15-2.1-0.22c0,0,0-0.34,0-0.34L73.21,162.52z"
			/>
		<path class="st145" d="M73.11,163c0,0,0,0.34,0,0.34c-0.73,0.06-1.47,0.12-2.2,0.17c0.02-0.24,0.04-0.49,0.07-0.73
			C71.68,162.86,72.4,162.93,73.11,163z"/>
		<path class="st146" d="M42.13,122.99c0.4,0,0.81,0.01,1.21,0.01c0.01,2.1,0.02,4.19,0.04,6.29c-0.42-0.01-0.84-0.01-1.26-0.02
			C40.92,127.17,40.64,125.08,42.13,122.99z"/>
		<path class="st76" d="M100.78,162.66l-0.41-0.02c0,0-0.4,0.1-0.4,0.1c-0.11-0.31-0.19-0.62-0.24-0.94
			c0.25-0.09,0.51-0.17,0.76-0.25C100.6,161.91,100.69,162.29,100.78,162.66z"/>
		<path class="st147" d="M98.56,161.26c-0.55,0.04-0.97-0.04-0.8-0.75c0.27-0.01,0.53,0.03,0.79,0.12
			C98.55,160.83,98.56,161.04,98.56,161.26z"/>
		<path class="st148" d="M98.56,161.26c0-0.21,0-0.42-0.01-0.64c0.33,0.26,0.67,0.52,1,0.78C99.21,161.41,98.88,161.37,98.56,161.26
			z"/>
		<path class="st149" d="M78.55,135.06c0.14,0.38,0.09,0.72-0.15,1.05c-1.3,1.75-0.74,3.75-0.74,5.67c0.58,0.65,0.51,1.31,0.04,1.99
			c-0.57,0.02-1.13,0.04-1.7,0.06c-2.47-1.39-0.71-3.92-1.58-5.74c-0.41-1.42-1.61-2.27-2.47-3.36c-0.24-0.46-0.3-0.95-0.23-1.46
			c0.7-1.02,1.52-1.28,2.53-0.43c1.11,0.68,2.23,1.35,3.34,2.03c0.19-0.12,0.39-0.24,0.58-0.36
			C78.3,134.67,78.42,134.86,78.55,135.06z"/>
		<path class="st150" d="M77.7,143.76c-0.01-0.66-0.03-1.33-0.04-1.99c1.39-0.91,2.84-1.03,4.34-0.31
			c-0.01,0.43-0.02,0.86-0.03,1.29c-0.18,0.5-0.47,0.92-0.86,1.27c-1.24,0.73-2.44,0.84-3.53-0.28L77.7,143.76z"/>
		<path class="st151" d="M76.21,137.26c1.22,2.22-0.98,4.34-0.21,6.55c-0.23,0.22-0.45,0.44-0.67,0.65
			c-1.44,0.51-2.9,0.65-4.38,0.15c-0.29-0.39-0.42-0.84-0.4-1.32c0.14-0.96,0.72-1.75,1.03-2.65c0.17-0.45,0.4-0.88,0.67-1.27
			c0.72-0.99,1.36-2.04,2.62-2.46C75.36,136.82,75.81,136.94,76.21,137.26z"/>
		<path class="st152" d="M80.76,142.78c0.4-0.01,0.81-0.03,1.21-0.04c0.39,0,0.78,0,1.18,0.01c1.05,1.44,0.94,2.91,0.15,4.4
			l-0.18,0.01c-0.26,0.52-0.63,0.63-1.12,0.31c-0.47-0.13-0.95-0.26-1.42-0.38C79.92,145.63,79.83,144.18,80.76,142.78z"/>
		<path class="st153" d="M80.76,142.78c-0.06,1.44-0.12,2.88-0.19,4.31c-1-1.12-2-2.24-3-3.35C78.64,143.42,79.7,143.1,80.76,142.78
			z"/>
		<path class="st154" d="M75.38,150.51c-0.02-0.31-0.04-0.61-0.08-0.92c1.89-0.41,3.79-0.82,5.68-1.23
			c0.11,0.25,0.23,0.51,0.34,0.76c-0.06,0.27-0.11,0.55-0.17,0.82c-0.4,0.78-1.02,1.32-1.85,1.62
			C77.79,151.96,76.59,151.23,75.38,150.51z"/>
		<path class="st155" d="M81.05,149.44c-0.07-0.36-0.1-0.72-0.08-1.08c0.33-0.14,0.66-0.26,1.01-0.36c0.42-0.27,0.79-0.22,1.12,0.15
			c0,0-0.15,0.12-0.15,0.12c-0.01,0.39-0.03,0.78-0.04,1.18C82.3,149.98,81.68,149.91,81.05,149.44z"/>
		<path class="st156" d="M83.11,148.15c-0.37-0.05-0.75-0.1-1.12-0.15c0,0,0-0.52,0-0.52c0.37-0.1,0.75-0.21,1.12-0.31
			C83.14,147.5,83.14,147.83,83.11,148.15z"/>
		<path class="st157" d="M83.02,150.38c0.69,0.39,1.39,0.78,2.08,1.17c1.78,0.58,2.09,1.8,1.5,3.42c-1.75,1.35-3.3,0.72-4.79-0.48
			c-0.58-0.73-0.77-1.56-0.62-2.47c0.18-0.57,0.52-1.03,1-1.38C82.47,150.56,82.75,150.47,83.02,150.38z"/>
		<path class="st158" d="M86.3,154.82c0.34-1.36-0.61-2.25-1.2-3.27c1-1.18,2.04-1.39,3.14-0.13c-0.95,1-0.55,2.28-0.7,3.44
			C87.11,155.33,86.7,155.29,86.3,154.82z"/>
		<path class="st159" d="M81.05,149.44c0.62,0,1.24,0,1.86,0c0.11,0.3,0.14,0.62,0.1,0.94c0,0-0.03-0.08-0.03-0.08
			c-0.59,0.81-1.35,0.77-2.17,0.42c-0.3-0.31-0.39-0.62-0.28-0.93c0.11-0.3,0.21-0.45,0.31-0.45L81.05,149.44z"/>
		<path class="st160" d="M70.33,159.23c-3.3-4.05-0.8-8.79-1.57-13.13c0.53,0.03,1.05,0.07,1.58,0.1
			C69.37,150.54,69.75,154.88,70.33,159.23z"/>
		<path class="st122" d="M71.96,157.26c0.03,0.24,0.05,0.48,0.05,0.73c-0.36-0.07-0.72-0.13-1.08-0.2
			C71.28,157.61,71.62,157.43,71.96,157.26z"/>
		<path class="st161" d="M71.03,143.76c0.03,0.29,0.01,0.57-0.08,0.85c-1.11-0.66-2.22-1.31-3.33-1.97
			c-0.04-0.33-0.12-0.65-0.23-0.96c-1.19-1.38-0.03-2.98-0.42-4.44c0.02-0.53,0.2-0.99,0.57-1.37c0.5-0.19,1-0.2,1.5-0.04
			c1.14,0.69,1.7,1.9,2.56,2.85c0.25,0.46,0.38,0.95,0.43,1.47C72.05,141.45,71.79,142.68,71.03,143.76z"/>
		<path class="st162" d="M83.29,147.16c-0.05-1.47-0.1-2.94-0.15-4.4c1.09,0.37,2.17,0.74,3.26,1.12
			C86.2,145.76,84.59,146.31,83.29,147.16z"/>
		<path class="st163" d="M75.38,150.51c1.45,0.03,2.89,0.06,4.34,0.08c0.4,0.36,0.66,0.8,0.75,1.33c-0.17,1.82-1.08,2.94-2.99,3.1
			c-0.34-0.06-0.69-0.12-1.03-0.15C76.09,153.41,75.74,151.96,75.38,150.51z"/>
		<path class="st164" d="M77.49,155.02c0.75-1.11,1.5-2.23,2.25-3.34c0.22-0.43,0.59-0.64,1.06-0.67c0.49,0,0.84,0.22,1.07,0.64
			c0.05,0.59,0.11,1.18,0.16,1.77c1.11,1.34,2.75,2.55,1.08,4.55c-1.12,0.1-2.24,0.19-3.36,0.29
			C79.06,157.14,77.23,156.81,77.49,155.02z"/>
		<path class="st165" d="M83.12,157.97c-0.36-1.51-0.72-3.03-1.08-4.54c1.42,0.46,2.85,0.93,4.27,1.39
			c0.41,0.01,0.82,0.03,1.24,0.04c-0.03,0.36-0.05,0.73-0.08,1.09c-1.1,0.7-2.19,1.39-3.29,2.09c0,0-0.53,0.02-0.53,0.02
			L83.12,157.97z"/>
		<path class="st166" d="M73.11,161.35c-0.41,0.01-0.82,0.02-1.23,0.03c-0.44-0.7-0.51-1.37,0.12-2c0.39-0.02,0.78-0.05,1.17-0.07
			C73.15,159.99,73.13,160.67,73.11,161.35z"/>
		<path class="st167" d="M72,159.38c-0.04,0.67-0.08,1.34-0.12,2c-0.37-0.06-0.74-0.12-1.11-0.18c0.03-0.59,0.05-1.18,0.08-1.77
			C71.23,159.41,71.61,159.39,72,159.38z"/>
		<path class="st106" d="M42.13,122.99c0,2.09-0.01,4.19-0.01,6.28c0,0-0.52,0.13-0.52,0.13s-0.53-0.1-0.53-0.1
			c-1.24-1.93-1.08-4.11-1.09-6.26C40.7,123.02,41.41,123.01,42.13,122.99z"/>
		<path class="st26" d="M68.78,101.23c0.32,0.26,0.64,0.51,0.96,0.77c0.12,1.11,0.25,2.23,0.37,3.34c0.23,0.43,0.28,0.89,0.16,1.36
			c-0.32,0.67-0.82,1.17-1.47,1.51c-0.66,0.3-1.36,0.44-2.08,0.45c-0.72-0.02-1.38-0.22-1.95-0.68c-0.14-0.18-0.29-0.36-0.44-0.54
			c-0.37-0.8-0.74-1.59-1.11-2.39c0.36-1.35,0.71-2.69,1.07-4.03C65.77,101.1,67.28,101.17,68.78,101.23z"/>
		<path class="st168" d="M64.25,108.61c-0.36-0.03-0.72,0-1.07,0.1c0.38-0.42,0.76-0.84,1.15-1.25c0,0,0.19,0.05,0.19,0.05
			c0.06,0.21,0.13,0.42,0.19,0.63C64.55,108.3,64.4,108.45,64.25,108.61z"/>
		<path class="st169" d="M72.1,105.08c0.29-0.63,0.59-1.26,0.88-1.89c0.09,0.68,0.19,1.35,0.28,2.03c0.22,0.48,0.13,0.89-0.26,1.24
			c-0.23,0.05-0.47,0.11-0.7,0.16c-0.2-0.14-0.4-0.27-0.59-0.41C71.49,105.71,71.61,105.33,72.1,105.08z"/>
		<path class="st170" d="M73.17,106.29c0.06-0.35,0.08-0.71,0.09-1.07c0.36,0.38,0.72,0.77,1.08,1.16c0,0-0.37,0.32-0.37,0.32
			c0,0-0.49-0.03-0.49-0.03S73.17,106.29,73.17,106.29z"/>
		<path class="st171" d="M75.26,106.41c0.05,0.33,0.06,0.66,0.04,0.99c-0.35,0.41-0.75,0.5-1.22,0.21c-0.29-0.44-0.3-0.87-0.01-1.31
			c0,0,0.26,0.08,0.26,0.08C74.64,106.38,74.95,106.39,75.26,106.41z"/>
		<path class="st172" d="M69.49,106.45c0.21-0.37,0.41-0.74,0.62-1.11c0.2,0.04,0.4,0.03,0.6-0.03c0.68,0.23,0.79,0.63,0.35,1.19
			C70.53,106.76,70.01,106.74,69.49,106.45z"/>
		<path class="st38" d="M70.89,106.34c0.04-0.36-0.02-0.7-0.18-1.03c0.46-0.08,0.92-0.16,1.39-0.24c0.03,0.41,0.06,0.81,0.09,1.22
			C71.77,106.61,71.33,106.62,70.89,106.34z"/>
		<path class="st173" d="M56.52,136.23c-2.2-2.37,1.57-3.51,1.13-5.51c1.09-0.68,1.03-2.04,1.76-2.94c0.79-0.78,1.71-1.19,2.84-0.99
			c0.83,0.29,1.46,0.82,1.92,1.55c0.56,1.06,0.58,2.19,0.45,3.34c-0.18,1.16-0.75,2.11-1.53,2.96c-1.06,0.85-2.32,1.36-3.53,1.96
			C58.54,136.63,57.48,136.87,56.52,136.23z"/>
		<path class="st174" d="M56.52,136.23c1.15-0.09,2.29-0.18,3.44-0.27c0.96-0.83,2.19-0.95,3.34-1.28c1.62-0.32,3,0.12,4.1,1.36
			c0,1.88-0.01,3.75-0.01,5.63c-1.23-0.22-1.84-1.01-2.01-2.2c1.11-2.44-0.83-2.1-2.11-2.24C61,136.98,58.6,137.72,56.52,136.23z"/>
		<path class="st175" d="M62.11,127.33c-0.64,0.38-1.28,0.76-1.92,1.14c-0.82,0.59-1.64,0.61-2.47,0.02
			c-0.69-3.68,0.83-5.09,4.46-4.33C63.04,125.23,63.06,126.29,62.11,127.33z"/>
		<path class="st176" d="M67.4,136.05c-1.38-0.02-2.77-0.03-4.15-0.05c-0.81-0.57-1.31-1.29-1.15-2.34c0.47-0.85,0.94-1.69,1.4-2.54
			c0.47-0.53,1-0.94,1.78-0.84c0.91,0.61,0.56,1.66,0.86,2.48c0.18,0.37,0.36,0.74,0.54,1.11c0.5,0.32,1.14,0.48,1.42,1.09
			c0.09,0.41,0.01,0.79-0.24,1.14L67.4,136.05z"/>
		<path class="st177" d="M62.11,127.33c0.02-1.06,0.05-2.12,0.08-3.18c2.73-0.7,3.6,0.98,4.07,3.17c-0.21,0.67-0.43,1.34-1.12,1.7
			c-0.73,0.2-1.38,0.01-1.97-0.43C62.81,128.16,62.46,127.75,62.11,127.33z"/>
		<path class="st178" d="M65.27,117.2c-0.29-0.98-0.58-1.96-0.87-2.95c1.07-0.15,2.14-0.3,3.22-0.45c1.18-0.73,2.29-0.74,3.28,0.35
			c-0.74,0.68-1.48,1.35-2.21,2.03C67.54,116.52,66.4,116.86,65.27,117.2z"/>
		<path class="st179" d="M67.55,135.28c-0.29-0.47-0.58-0.94-0.87-1.41c1.37-0.8,2.45-2.17,4.23-2.19c0.42-0.01,0.84-0.02,1.26-0.04
			c0.69,0.39,1.39,0.78,2.08,1.17c-0.73,0.31-1.46,0.61-2.19,0.92C71.12,135.89,69.44,135.89,67.55,135.28z"/>
		<path class="st180" d="M57.72,128.48c0.82-0.01,1.64-0.01,2.47-0.02c0.11,1.82-0.14,3.23-2.53,2.26
			C57.68,129.98,57.7,129.23,57.72,128.48z"/>
		<path class="st181" d="M65.23,128.43c0.34-0.37,0.68-0.74,1.03-1.12c-0.04,1.82-0.07,3.63-0.11,5.45
			c-0.31-0.72-0.61-1.45-0.91-2.17C64.68,129.87,64.74,129.15,65.23,128.43z"/>
		<path class="st182" d="M80.82,127.41c-0.72-0.03-1.45-0.05-2.17-0.08c-0.57-0.38-0.81-0.94-0.9-1.59c0-0.63,0.13-1.23,0.31-1.83
			c0.15-0.38,0.35-0.73,0.63-1.03c1.92-1.56,3.6-3.76,6.59-2.44c0.39,0.49,0.74,1,1.05,1.53c0.4,2.67,0.21,5.06-2.85,6.11
			C82.49,128.27,81.61,128,80.82,127.41z"/>
		<path class="st183" d="M83.23,127.27c1.85-1.37,2.4-3.22,2.04-5.41c4.04,0.47,0.29,4.08,2.19,5.42c1.65,1.6,0.28,2.45-0.84,3.36
			c-1.26,0.09-2.27-0.35-3.02-1.37C83.22,128.65,83.08,127.98,83.23,127.27z"/>
		<path class="st184" d="M84.2,128.36c0.81,0.75,1.62,1.51,2.43,2.27c-0.1,0.46-0.19,0.91-0.29,1.37c-0.51,1.65-0.98,3.38-3.31,1.94
			c-0.37-0.02-0.73-0.08-1.08-0.2c-0.35-0.31-0.6-0.68-0.77-1.12c-0.07-0.47-0.04-0.93,0.08-1.39c0.29-0.65,0.74-1.2,1.13-1.8
			C82.87,128.87,83.49,128.55,84.2,128.36z"/>
		<path class="st185" d="M83.03,133.94c1.42-0.12,2.42-0.94,3.31-1.95c0.66,1.89,0.94,4.1-1.16,4.82
			C83.6,137.36,83.19,135.37,83.03,133.94z"/>
		<path class="st186" d="M87.47,127.27c-1.95-1.32-0.22-4.11-2.19-5.42c0-0.47,0-0.93,0.01-1.4
			C90.8,121.19,87.17,124.86,87.47,127.27z"/>
		<path class="st187" d="M84.2,128.36c-0.43,0.79-0.87,1.57-1.3,2.36c-0.6,0.45-1.25,0.57-1.95,0.3c-0.25-0.23-0.37-0.5-0.36-0.78
			c0.01-0.3,0.05-0.45,0.12-0.45c0.04-0.8,0.07-1.59,0.11-2.38c0.81-0.05,1.61-0.1,2.42-0.15C83.56,127.63,83.88,128,84.2,128.36z"
			/>
		<path class="st188" d="M78.4,125.45c0.08,0.63,0.16,1.25,0.24,1.88c0,0,0.07-0.05,0.07-0.05c-0.69,0.64-1.42,0.63-2.18,0.15
			c-0.01-0.82-0.01-1.65-0.02-2.47c0.31-0.29,0.67-0.48,1.1-0.57c0.43,0.05,0.8,0.22,1.12,0.51
			C78.62,125.09,78.51,125.27,78.4,125.45z"/>
		<path class="st189" d="M81.91,132.7c0.02,0.35,0.03,0.7,0.04,1.04c-0.71,0.11-1.43,0.22-2.14,0.33c-0.47,0.38-0.79,0.27-0.99-0.28
			c0.32-0.38,0.64-0.77,0.95-1.15c0.31-0.27,0.68-0.44,1.09-0.5C81.27,132.22,81.63,132.4,81.91,132.7z"/>
		<path class="st190" d="M80.81,132.67l-0.52,0.05c0,0-0.51-0.07-0.51-0.07c0.06-1.03-0.03-2.11,0.93-2.85
			c0.09,0.27,0.15,0.54,0.19,0.82c0.4,0.23,0.58,0.59,0.55,1.04C81.43,132.12,81.22,132.45,80.81,132.67z"/>
		<path class="st191" d="M76.53,127.43c0.73-0.05,1.45-0.1,2.18-0.15C78.07,128.46,77.35,128.69,76.53,127.43z"/>
		<path class="st192" d="M78.69,122.89c-0.11,0.25-0.19,0.51-0.25,0.78c0.02,0.23,0.03,0.46,0.05,0.7c-0.23,0.01-0.47,0.02-0.7,0.02
			c-0.18-0.15-0.36-0.3-0.54-0.44c-0.16-0.5,0-0.87,0.44-1.13C78.02,122.8,78.36,122.82,78.69,122.89z"/>
		<path class="st193" d="M77.69,122.81c-0.01,0.38-0.01,0.76-0.02,1.13c-0.3,0.47-0.63,0.52-1,0.09c-0.11-0.34-0.16-0.68-0.16-1.03
			c0.3-0.39,0.66-0.48,1.09-0.23L77.69,122.81z"/>
		<path class="st194" d="M78.83,133.79c0.34,0.04,0.67,0.14,0.99,0.28c-0.42,0.33-0.84,0.66-1.27,0.99c0,0,0.12,0.05,0.12,0.05
			c-0.28-0.23-0.39-0.48-0.34-0.75c0.05-0.28,0.12-0.42,0.2-0.42L78.83,133.79z"/>
		<path class="st195" d="M78.53,133.95c0.05,0.39,0.09,0.77,0.14,1.16c-0.36-0.09-0.72-0.18-1.07-0.26
			C77.9,134.54,78.21,134.24,78.53,133.95z"/>
		<path class="st192" d="M77.59,122.76c-0.36,0.08-0.73,0.15-1.09,0.23C76.75,122.36,77.1,122.25,77.59,122.76z"/>
		<path class="st196" d="M76.66,124.03c0.34-0.01,0.67-0.04,1-0.09c0,0-0.08-0.03-0.08-0.03c0.66,0.33,0.71,0.74,0.15,1.22
			c-0.41-0.05-0.81-0.11-1.22-0.16C76.51,124.64,76.56,124.33,76.66,124.03z"/>
		<path class="st32" d="M74.3,109.68c-0.33,0.75-0.66,1.51-0.98,2.26c-1.26,2.85-2.95,1.42-4.58,0.45c-1.1-1.97,0.03-3.18,1.47-4.29
			c0.26-0.1,0.52-0.2,0.78-0.31c0.28-0.02,0.56-0.03,0.83-0.05c0.55,0.08,1.05,0.3,1.5,0.65C73.73,108.75,74.06,109.18,74.3,109.68z
			"/>
		<path class="st197" d="M68.71,111.87c1.52,0.78,3.04,1.63,4.6,0.07c0.31,0.61,0.63,1.22,0.94,1.83c-1.12,0.13-2.23,0.26-3.35,0.39
			c-1.09-0.12-2.19-0.23-3.28-0.35c0-0.6,0.01-1.2,0.01-1.8C67.94,111.57,68.3,111.54,68.71,111.87z"/>
		<path class="st30" d="M74.3,109.68c-0.38,0-0.76-0.01-1.14-0.01c-0.52-0.45-0.54-0.91-0.05-1.39c0.82-0.31,1.62-0.49,2.18,0.46
			c0.04,0.29,0.1,0.58,0.16,0.86C75.06,109.62,74.68,109.65,74.3,109.68z"/>
		<path class="st198" d="M75.29,108.73c-0.73-0.01-1.46-0.03-2.19-0.04c-0.42,0.28-0.77,0.22-1.05-0.22l0.1,0.01
			c-0.18-0.13-0.36-0.26-0.55-0.4c0.03-0.22,0.07-0.44,0.1-0.67c0.35-0.31,0.75-0.47,1.22-0.49c0.46-0.03,0.88,0.08,1.25,0.37
			c0.37,0.03,0.75,0.07,1.12,0.1C75.29,107.84,75.29,108.28,75.29,108.73z"/>
		<path class="st199" d="M68.71,111.87c-0.36,0.04-0.73,0.08-1.09,0.13c-0.4-0.05-0.79-0.1-1.19-0.15c-0.28-0.3-0.53-0.63-0.74-0.98
			c-0.14-0.39-0.22-0.79-0.23-1.2c0.01-0.41,0.07-0.81,0.2-1.2c0.21-0.35,0.44-0.69,0.71-1c0.63-1.2,1.58-0.05,2.34-0.31
			c0.71-0.3,1.43-0.3,2.16-0.07c0.29,0.24,0.41,0.51,0.36,0.8c-0.05,0.3-0.12,0.45-0.2,0.45C70.25,109.52,69.48,110.7,68.71,111.87z
			"/>
		<path class="st197" d="M66.41,110.81c0.01,0.35,0.02,0.7,0.02,1.05c-0.74-0.36-1.47-0.71-2.21-1.06c0,0,0.11-0.13,0.11-0.13
			c0.3-0.31,0.67-0.48,1.09-0.53C65.85,110.22,66.18,110.44,66.41,110.81z"/>
		<path class="st168" d="M66.21,108.48c0.07,0.26,0.15,0.52,0.24,0.78c-0.16,0.47-0.49,0.76-0.96,0.89
			c-0.5,0.03-0.89-0.16-1.18-0.57c0.01-0.33-0.01-0.65-0.07-0.98c0,0,0.2-0.2,0.2-0.2C65.06,107.95,65.65,107.94,66.21,108.48z"/>
		<path class="st200" d="M64.32,109.59c0.36,0.06,0.73,0.12,1.09,0.18c0.35,0.22,0.46,0.44,0.34,0.66
			c-0.12,0.22-0.23,0.33-0.35,0.33c-0.36,0-0.71-0.03-1.06-0.1C64.33,110.3,64.33,109.95,64.32,109.59z"/>
		<path class="st201" d="M67.55,135.28c1.5-0.51,3.01-1.03,4.51-1.54c0.35,0.11,0.71,0.22,1.06,0.33c0.54,0.5,0.77,1.17,0.99,1.85
			c-0.23,1.59-0.16,3.24-1.01,4.69l0.07-0.11c-1.32,0.74-1.65-0.47-2.25-1.14l0.08,0.1c-1.14-0.82-1.37-2.27-2.25-3.27
			c-0.29-0.07-0.59-0.1-0.89-0.09C67.68,135.86,67.57,135.58,67.55,135.28z"/>
		<path class="st202" d="M73.22,136.14c-0.03-0.69-0.06-1.38-0.09-2.07c1.8,0.32,2.59,1.62,3.08,3.19c0,0-0.44,0-0.44,0l-0.44-0.02
			C74.14,137.79,73.63,137.05,73.22,136.14z"/>
		<path class="st203" d="M70.92,139.36c0.75,0.38,1.5,0.76,2.25,1.14c-0.07,1.51-0.3,2.91-2.14,3.26
			C70.99,142.3,70.95,140.83,70.92,139.36z"/>
		<path class="st204" d="M73.22,136.14c0.7,0.37,1.4,0.73,2.1,1.1c0.04,1.63-1.57,2.18-2.22,3.36
			C73.86,139.14,71.72,137.6,73.22,136.14z"/>
		<path class="st205" d="M80.95,151.4c-0.41,0.09-0.81,0.18-1.22,0.28c0.01-0.36,0-0.73-0.02-1.09c0.38-0.42,0.76-0.83,1.14-1.25
			c0.02,0.33,0.05,0.65,0.1,0.98C81.64,150.68,81.64,151.04,80.95,151.4z"/>
		<path class="st206" d="M80.95,151.4c-0.04-0.36-0.04-0.72,0-1.08c0.68,0,1.36-0.01,2.04-0.01c-0.38,0.45-0.75,0.9-1.13,1.35
			C81.56,151.58,81.26,151.5,80.95,151.4z"/>
		<path class="st207" d="M68.75,136.19c2.14,0.14,2.07,1.79,2.25,3.27C68.65,139.47,68.24,138.15,68.75,136.19z"/>
		<path class="st208" d="M71.04,107.6c-0.78-0.14-1.56-0.28-2.34-0.42c0.26-0.24,0.53-0.49,0.79-0.73c0.46-0.04,0.93-0.07,1.4-0.11
			c0.43-0.01,0.87-0.03,1.3-0.04c0,0-0.12-0.02-0.12-0.02c0.35,0.19,0.51,0.43,0.49,0.72c-0.02,0.32-0.08,0.47-0.17,0.47l-0.32,0.22
			C71.7,107.99,71.36,107.94,71.04,107.6z"/>
		<path class="st209" d="M66.21,108.48c-0.59-0.02-1.17-0.05-1.76-0.07c-0.04-0.3-0.02-0.6,0.06-0.9c0.62-0.01,1.24-0.02,1.86-0.03
			C66.44,107.84,66.38,108.17,66.21,108.48z"/>
		<path class="st210" d="M72.39,107.47c-0.11-0.4-0.22-0.8-0.33-1.19c0.37,0,0.73,0,1.1,0c0,0,0.03,0.03,0.03,0.03
			c0.31,0.24,0.41,0.48,0.31,0.72c-0.1,0.24-0.2,0.36-0.31,0.36C72.93,107.44,72.66,107.46,72.39,107.47z"/>
		<path class="st211" d="M73.2,107.39c-0.04-0.36-0.04-0.72,0-1.08c0.29,0,0.58-0.01,0.87-0.02c0.11,0.33,0.14,0.66,0.1,1
			C73.86,107.38,73.53,107.41,73.2,107.39z"/>
		<path class="st212" d="M62.1,133.66c1.27,0.35,1.23,1.34,1.15,2.34c-1.09-0.01-2.19-0.02-3.29-0.03
			C59.68,134.28,60.77,133.86,62.1,133.66z"/>
		<path class="st213" d="M65.23,128.43c0,0.72,0.01,1.44,0.01,2.16c-0.58,0.18-1.16,0.35-1.73,0.53c-0.11-0.85-0.23-1.7-0.34-2.54
			C63.85,128.53,64.54,128.48,65.23,128.43z"/>
		<path class="st196" d="M78.44,123.67c0.78,0.61,0.73,1.21-0.04,1.78c0,0,0.03-0.09,0.03-0.09c-0.3-0.53-0.29-1.06,0.04-1.57
			L78.44,123.67z"/>
		<path class="st214" d="M80.89,131.72c0-0.37,0-0.74,0-1.1c0.67,0.04,1.34,0.07,2.01,0.11c-0.37,0.33-0.73,0.66-1.1,0.99
			C81.5,132.21,81.2,132.19,80.89,131.72z"/>
		<path class="st215" d="M80.89,131.72c0.31,0,0.61,0,0.91,0c0.08,0.32,0.12,0.65,0.11,0.99c-0.37-0.01-0.74-0.02-1.11-0.03
			C80.84,132.35,80.87,132.03,80.89,131.72z"/>
		<path class="st193" d="M78.47,123.79c-0.01,0.52-0.03,1.05-0.04,1.57c-0.26-0.01-0.49-0.09-0.7-0.23c-0.05-0.4-0.1-0.81-0.15-1.21
			C77.87,123.81,78.17,123.76,78.47,123.79z"/>
		<path class="st66" d="M71.04,107.6c0.35-0.06,0.7-0.03,1.04,0.09c0.04,0.26,0.07,0.52,0.08,0.78c-0.38-0.04-0.76-0.09-1.14-0.13
			C71.02,108.1,71.02,107.85,71.04,107.6z"/>
		<path class="st74" d="M72.05,108.47c0.37-0.01,0.72,0.06,1.05,0.22c0.02,0.33,0.04,0.65,0.06,0.98
			C72.79,109.27,72.42,108.87,72.05,108.47z"/>
		<path class="st216" d="M65.4,110.76c0.01-0.33,0.01-0.66,0.01-0.99c0.35-0.17,0.7-0.34,1.05-0.51c-0.01,0.51-0.03,1.03-0.04,1.55
			C66.07,110.79,65.73,110.78,65.4,110.76z"/>
	</g>
</g>
</svg>
