<?xml version="1.0" encoding="UTF-8" standalone="no"?>
<!DOCTYPE svg PUBLIC "-//W3C//DTD SVG 1.1//EN" "http://www.w3.org/Graphics/SVG/1.1/DTD/svg11.dtd">
<svg width="100%" height="100%" viewBox="0 0 100 125" version="1.1" xmlns="http://www.w3.org/2000/svg" xmlns:xlink="http://www.w3.org/1999/xlink" xml:space="preserve" xmlns:serif="http://www.serif.com/" style="fill-rule:evenodd;clip-rule:evenodd;stroke-linejoin:round;stroke-miterlimit:1.41421;">
    <path d="M28.78,5.985C32.418,4.357 33.958,5.045 37.794,5.913C39.077,6.48 40.059,7.305 40.301,8.544C41.732,15.862 41.948,22.331 41.634,29.042C41.449,33.027 35.636,35.122 32.589,37.698C33.138,49.237 42.671,65.832 52.385,71.984C56.139,70.632 60.858,66.647 64.402,68.477C70.371,71.561 75.865,74.983 81.487,79.882C82.439,80.711 82.664,81.974 82.514,83.368C81.347,87.125 81.063,88.659 77.944,91.139C47.813,115.097 -6.136,21.604 28.78,5.985L28.78,5.985Z"/>
</svg>
